<svg width="137" height="33" viewBox="0 0 137 33" fill="none" xmlns="http://www.w3.org/2000/svg">
<path d="M0.482861 32L4.10886 0.639999H11.4197L15.0261 32H11.1257L10.3613 23.7092H5.14766L4.38326 32H0.482861ZM5.48086 20.3184H10.0281L9.40086 13.6152L8.61686 4.0308H6.89206L6.10806 13.6152L5.48086 20.3184ZM18.257 32V0.639999H24.6662C26.9659 0.639999 28.6319 1.0908 29.6642 1.9924C30.6965 2.88093 31.2191 4.364 31.2322 6.4416C31.2453 7.51307 31.2518 8.44733 31.2518 9.2444C31.2518 10.0284 31.2387 10.8059 31.2126 11.5768C31.1342 12.7659 30.8663 13.7067 30.409 14.3992C29.9647 15.0917 29.2395 15.5752 28.2334 15.8496V16.5356C29.2787 16.8361 30.0366 17.3327 30.507 18.0252C30.9905 18.7177 31.2583 19.6716 31.3106 20.8868C31.3498 21.8537 31.3629 22.7357 31.3498 23.5328C31.3498 24.3299 31.3367 25.2119 31.3106 26.1788C31.2322 28.2564 30.6834 29.746 29.6642 30.6476C28.6581 31.5492 27.0182 32 24.7446 32H18.257ZM22.0594 28.57H24.7446C25.7377 28.57 26.4433 28.3805 26.8614 28.0016C27.2795 27.6227 27.4951 27.002 27.5082 26.1396C27.5343 25.2119 27.5474 24.356 27.5474 23.572C27.5474 22.788 27.5343 21.9387 27.5082 21.024C27.4951 19.848 27.2861 19.0313 26.881 18.574C26.489 18.1167 25.803 17.888 24.823 17.888H22.0594V28.57ZM22.0594 14.458H24.9014C25.7899 14.458 26.4302 14.2228 26.8222 13.7524C27.2142 13.282 27.4167 12.5307 27.4298 11.4984C27.4559 10.5576 27.4625 9.68867 27.4494 8.8916C27.4494 8.08147 27.4429 7.21253 27.4298 6.2848C27.4167 5.47466 27.2011 4.89973 26.783 4.56C26.3649 4.2072 25.6593 4.0308 24.6662 4.0308H22.0594V14.458ZM41.7602 32.294C39.4082 32.294 37.7095 31.8171 36.6642 30.8632C35.6188 29.9093 35.0766 28.3348 35.0374 26.1396C35.0112 24.2841 34.9916 22.5528 34.9786 20.9456C34.9655 19.3384 34.959 17.7769 34.959 16.2612C34.959 14.7324 34.9655 13.1775 34.9786 11.5964C34.9916 10.0023 35.0112 8.3036 35.0374 6.5004C35.0766 4.29213 35.6188 2.7176 36.6642 1.7768C37.7095 0.822931 39.4082 0.345997 41.7602 0.345997C44.086 0.345997 45.7651 0.822931 46.7974 1.7768C47.8427 2.7176 48.3915 4.29213 48.4438 6.5004C48.496 8.3036 48.5287 10.0023 48.5418 11.5964C48.5679 13.1775 48.581 14.7324 48.581 16.2612C48.581 17.79 48.5679 19.358 48.5418 20.9652C48.5287 22.5593 48.496 24.2841 48.4438 26.1396C48.3915 28.3348 47.8427 29.9093 46.7974 30.8632C45.7651 31.8171 44.086 32.294 41.7602 32.294ZM41.7602 29.0992C42.8186 29.0992 43.5568 28.8967 43.975 28.4916C44.4062 28.0865 44.6283 27.3548 44.6414 26.2964C44.7067 24.4279 44.7524 22.6835 44.7786 21.0632C44.8047 19.4429 44.8178 17.8684 44.8178 16.3396C44.8178 14.7977 44.8047 13.2167 44.7786 11.5964C44.7524 9.96307 44.7067 8.21213 44.6414 6.3436C44.6283 5.29827 44.4062 4.56653 43.975 4.1484C43.5568 3.73026 42.8186 3.5212 41.7602 3.5212C40.7018 3.5212 39.957 3.73026 39.5258 4.1484C39.0946 4.56653 38.8659 5.29827 38.8398 6.3436C38.7875 8.17293 38.7483 9.8912 38.7222 11.4984C38.696 13.1056 38.683 14.6801 38.683 16.222C38.683 17.7639 38.696 19.3515 38.7222 20.9848C38.7483 22.6181 38.7875 24.3887 38.8398 26.2964C38.8659 27.3548 39.0946 28.0865 39.5258 28.4916C39.957 28.8967 40.7018 29.0992 41.7602 29.0992ZM59.2146 32.294C56.8626 32.294 55.1704 31.8301 54.1382 30.9024C53.1059 29.9747 52.5767 28.4524 52.5506 26.3356C52.4983 22.0367 52.4722 17.7573 52.4722 13.4976C52.4722 9.2248 52.4983 4.93893 52.5506 0.639999H56.353C56.3138 3.5016 56.2876 6.38933 56.2746 9.3032C56.2746 12.204 56.2811 15.1113 56.2942 18.0252C56.3072 20.9391 56.3203 23.8268 56.3334 26.6884C56.3334 27.5247 56.5555 28.1323 56.9998 28.5112C57.444 28.8771 58.1823 29.06 59.2146 29.06C60.2468 29.06 60.9786 28.8771 61.4098 28.5112C61.854 28.1323 62.0762 27.5247 62.0762 26.6884C62.1023 23.8268 62.1219 20.9391 62.135 18.0252C62.148 15.1113 62.1546 12.204 62.1546 9.3032C62.1546 6.38933 62.1284 3.5016 62.0762 0.639999H65.8786C65.9308 4.93893 65.957 9.2248 65.957 13.4976C65.97 17.7573 65.9439 22.0367 65.8786 26.3356C65.8524 28.4524 65.3232 29.9747 64.291 30.9024C63.2718 31.8301 61.5796 32.294 59.2146 32.294ZM73.0868 32V4.0308H68.1476V0.639999H81.8088V4.0308H76.8892V32H73.0868ZM92.2929 32V0.639999H98.8197C101.119 0.639999 102.772 1.10387 103.779 2.0316C104.798 2.94626 105.327 4.45546 105.366 6.5592C105.405 8.88507 105.431 11.0933 105.445 13.184C105.458 15.2747 105.458 17.3653 105.445 19.456C105.431 21.5336 105.405 23.7353 105.366 26.0612C105.327 28.178 104.811 29.7003 103.818 30.628C102.825 31.5427 101.211 32 98.9765 32H92.2929ZM96.0953 28.6092H98.9765C99.8912 28.6092 100.545 28.4393 100.937 28.0996C101.342 27.7468 101.551 27.1849 101.564 26.414C101.616 24.5585 101.649 22.8076 101.662 21.1612C101.688 19.5017 101.701 17.8815 101.701 16.3004C101.701 14.7193 101.688 13.1056 101.662 11.4592C101.649 9.79973 101.616 8.04227 101.564 6.1868C101.551 5.42893 101.335 4.88013 100.917 4.5404C100.499 4.20067 99.7997 4.0308 98.8197 4.0308H96.0953V28.6092ZM109.673 32V0.639999H113.475V28.6092H120.864V32H109.673ZM129.805 32.294C127.453 32.294 125.761 31.8301 124.729 30.9024C123.697 29.9747 123.167 28.4524 123.141 26.3356C123.089 22.0367 123.063 17.7573 123.063 13.4976C123.063 9.2248 123.089 4.93893 123.141 0.639999H126.944C126.904 3.5016 126.878 6.38933 126.865 9.3032C126.865 12.204 126.872 15.1113 126.885 18.0252C126.898 20.9391 126.911 23.8268 126.924 26.6884C126.924 27.5247 127.146 28.1323 127.59 28.5112C128.035 28.8771 128.773 29.06 129.805 29.06C130.837 29.06 131.569 28.8771 132 28.5112C132.445 28.1323 132.667 27.5247 132.667 26.6884C132.693 23.8268 132.713 20.9391 132.726 18.0252C132.739 15.1113 132.745 12.204 132.745 9.3032C132.745 6.38933 132.719 3.5016 132.667 0.639999H136.469C136.521 4.93893 136.548 9.2248 136.548 13.4976C136.561 17.7573 136.535 22.0367 136.469 26.3356C136.443 28.4524 135.914 29.9747 134.882 30.9024C133.862 31.8301 132.17 32.294 129.805 32.294Z" fill="#D0FF00"/>
</svg>
