<svg width="1220" height="325" viewBox="0 0 1220 325" fill="none" xmlns="http://www.w3.org/2000/svg">
<path d="M141.077 209.149L155.826 320.838H109.919L101.106 254.061H54.7199L45.7228 320.838H0L14.7493 209.629L46.8659 5.97827H109.145L141.077 209.149ZM95.2065 209.149L77.8761 78.1759L60.5457 209.149H95.2065Z" fill="#145DDD"/>
<path d="M311.457 258.702C311.457 302.802 289.665 324.889 246.155 325C202.718 325 181 305 181 260.789V66.1136C181 22.0501 202.718 0 246.155 0C289.592 0 311.457 22.0501 311.457 66.1136V108.481H266.029V66.1136C266.029 51.9912 259.429 44.8746 246.302 44.764H245.97C232.917 44.764 226.391 51.8805 226.391 66.1136V258.702C226.391 272.935 232.954 280.052 246.118 280.052C259.282 280.052 266.029 272.935 266.029 258.702V216.335H311.457V258.702Z" fill="#145DDD"/>
<path d="M473.966 209.149L488.716 320.838H442.809L433.996 254.061H387.609L378.612 320.838H332.89L347.639 209.629L379.755 5.97827H442.034L473.966 209.149ZM428.059 209.149L410.729 78.1759L393.398 209.149H428.059Z" fill="#145DDD"/>
<path d="M516.002 5.94131L589.161 5.83066C629.5 5.94128 646.496 27 646.496 72.2392V254.724C646.496 298.714 625.368 320.727 583.111 320.838H516.039V5.94131H516.002ZM561.43 50.7422V276.074H581.341C594.505 276.074 601.068 268.958 601.068 254.724V72.2392C601.068 57.8956 594.505 50.7422 581.341 50.7422H561.43Z" fill="#145DDD"/>
<path d="M684.991 5.9413H802.801V50.7053H730.419V140.897H792.698V185.845H730.419V276.037H802.801V320.801H684.991V5.90442V5.9413Z" fill="#145DDD"/>
<path d="M935.361 221.649L988.163 5.94128H1033.59V320.838H990.118V144.142L951.29 320.838H920.464L880.494 144.142V320.838H836.504V5.94128H881.932L935.361 221.649Z" fill="#145DDD"/>
<path d="M1109.03 5.94128L1140.01 128.729L1170.98 5.94128H1219.14L1164.08 184.555L1162.79 188.39V320.801H1117.37V188.39L1115.93 184.555L1060.88 5.94128H1109.03Z" fill="#145DDD"/>
<path d="M270.784 166.944L270.212 171.269H271.356L270.784 166.944Z" fill="white"/>
<path d="M276.551 178.953H276.54C276.108 178.953 275.894 179.187 275.894 179.658V186.019C275.894 186.489 276.111 186.723 276.546 186.723C276.98 186.723 277.203 186.489 277.203 186.019V179.658C277.203 179.193 276.986 178.956 276.551 178.953Z" fill="white"/>
<path d="M265.188 166.036H264.657V169.016H265.001C265.21 169.016 265.353 169.002 265.43 168.974C265.703 168.864 265.838 168.644 265.838 168.311V166.748C265.838 166.275 265.62 166.039 265.185 166.039L265.188 166.036Z" fill="white"/>
<path d="M270.631 147.483C271.068 147.483 271.288 147.249 271.288 146.779V140.418C271.288 139.95 271.071 139.716 270.636 139.713H270.625C270.193 139.713 269.979 139.947 269.979 140.418V146.779C269.979 147.249 270.196 147.483 270.631 147.483Z" fill="white"/>
<path d="M287.818 179.116H287.16V186.558H287.818C288.252 186.558 288.47 186.324 288.47 185.854V179.828C288.47 179.355 288.252 179.118 287.818 179.118V179.116Z" fill="white"/>
<path d="M265.155 147.483C265.592 147.483 265.813 147.249 265.813 146.779V140.418C265.813 139.95 265.595 139.716 265.161 139.713H265.15C264.718 139.713 264.503 139.947 264.503 140.418V146.779C264.503 147.249 264.72 147.483 265.155 147.483Z" fill="white"/>
<path d="M260.72 183.628C260.643 183.595 260.5 183.581 260.291 183.581H259.82V186.561H260.478C260.913 186.561 261.13 186.327 261.13 185.856V184.288C261.13 183.955 260.995 183.738 260.723 183.631L260.72 183.628Z" fill="white"/>
<path d="M260.475 179.116H259.817V182.095H260.288C260.497 182.095 260.64 182.082 260.717 182.054C260.989 181.944 261.124 181.724 261.124 181.391V179.828C261.124 179.355 260.907 179.118 260.472 179.118L260.475 179.116Z" fill="white"/>
<path d="M292.371 165.873H292.36C291.928 165.873 291.714 166.107 291.714 166.578V172.939C291.714 173.409 291.931 173.643 292.366 173.643C292.801 173.643 293.024 173.409 293.024 172.939V166.578C293.024 166.11 292.806 165.876 292.371 165.873Z" fill="white"/>
<path d="M253.679 133V193.439H312V133H253.679ZM289.521 160.153H291.381V161.675L290.808 163.609H289.837L290.145 161.876H289.521V160.153ZM280.981 151.478H282.48V161.876H280.981V151.478ZM274.061 138.398H275.56V143.026L277.156 138.398H278.763L276.782 143.598L278.763 148.798H277.156L275.56 144.176V148.798H274.061V138.398ZM270.005 152.956V151.478H274.314V152.956H272.911V161.876H271.411V152.956H270.008H270.005ZM268.478 140.418C268.478 138.962 269.196 138.233 270.63 138.233C272.063 138.233 272.787 138.962 272.787 140.418V146.779C272.787 148.234 272.069 148.963 270.63 148.969C269.196 148.969 268.478 148.24 268.478 146.779V140.418ZM267.524 151.478H269.023V161.876H267.524V151.478ZM263.003 140.418C263.003 138.962 263.721 138.233 265.155 138.233C266.588 138.233 267.312 138.962 267.312 140.418V146.779C267.312 148.234 266.594 148.963 265.155 148.969C263.721 148.969 263.003 148.24 263.003 146.779V140.418ZM258.318 138.398H259.817V147.318H262.208V148.796H258.318V138.398ZM257.894 166.036V164.558H262.202V166.036H260.799V174.956H259.3V166.036H257.897H257.894ZM262.626 181.391C262.626 182.073 262.351 182.555 261.804 182.838C262.351 183.122 262.626 183.603 262.626 184.285V185.854C262.626 187.306 261.927 188.033 260.532 188.038H258.318V177.641H260.629C261.96 177.644 262.626 178.373 262.626 179.831V181.394V181.391ZM262.219 156.508L261.446 161.876H259.391L258.331 155.154L257.844 151.475H259.355L260.414 159.49L261.473 151.475H262.962L264.021 159.49L265.08 151.475H266.596L266.109 155.165L265.056 161.876H263L262.222 156.508H262.219ZM267.735 179.116H265.345V182.095H267.4V183.578H265.345V186.558H267.735V188.036H263.845V177.638H267.735V179.116ZM266.2 174.958L264.849 170.386L264.659 170.413V174.961H263.16V164.564H265.345C266.676 164.566 267.342 165.298 267.342 166.754V168.316C267.342 169.233 266.949 169.835 266.159 170.124L267.846 174.964H266.203L266.2 174.958ZM268.701 171.285L269.76 164.558H271.816L272.87 171.269L273.357 174.958H271.841L271.549 172.754H270.016L269.719 174.958H268.209L268.696 171.285H268.701ZM271.78 183.537L271.739 183.664V188.036H270.239V183.664L270.192 183.537L268.374 177.638H269.964L270.988 181.694L272.011 177.638H273.601L271.783 183.537H271.78ZM274.262 164.558H275.761L277.181 170.589V164.558H278.57V174.956H277.071L275.703 169.114V174.956H274.262V164.558ZM278.702 186.019C278.702 187.474 277.984 188.203 276.545 188.209C275.112 188.209 274.394 187.48 274.394 186.019V179.658C274.394 178.202 275.112 177.473 276.545 177.473C277.979 177.473 278.702 178.202 278.702 179.658V186.019ZM279.577 161.876H278.078V157.418H276.768V161.876H275.269V151.478H276.768V155.935H278.078V151.478H279.577V161.876ZM279.841 171.538H281.341V172.939C281.341 173.409 281.561 173.643 281.999 173.643C282.436 173.643 282.651 173.409 282.651 172.939V171.75C282.651 171.249 282.183 170.661 281.247 169.989C280.312 169.321 279.844 168.509 279.844 167.552V166.578C279.844 165.122 280.562 164.393 281.996 164.393C283.429 164.393 284.153 165.122 284.153 166.578V167.978H282.653V166.578C282.653 166.11 282.436 165.876 282.001 165.873H281.99C281.558 165.873 281.344 166.107 281.344 166.578V167.521C281.344 167.984 281.811 168.55 282.75 169.222C283.685 169.89 284.153 170.691 284.153 171.624V172.939C284.153 174.397 283.435 175.129 282.001 175.129C280.562 175.126 279.844 174.394 279.844 172.939V171.538H279.841ZM284.282 188.036H282.783L281.415 182.194V188.036H279.974V177.638H281.473L282.893 183.669V177.638H284.282V188.036ZM285.328 161.876H283.886V151.478H285.386L286.805 157.509V151.478H288.195V161.876H286.695L285.328 156.034V161.876ZM285.424 164.558H289.314V166.036H286.924V169.015H288.979V170.498H286.924V174.956H285.424V164.558ZM289.969 185.854C289.969 187.306 289.27 188.033 287.876 188.038H285.661V177.641H287.972C289.303 177.644 289.969 178.373 289.969 179.831V185.856V185.854ZM294.523 172.939C294.523 174.394 293.805 175.123 292.366 175.129C290.932 175.129 290.214 174.4 290.214 172.939V166.578C290.214 165.122 290.932 164.393 292.366 164.393C293.799 164.393 294.523 165.122 294.523 166.578V172.939ZM298.837 174.958L297.486 170.386L297.296 170.413V174.961H295.797V164.564H297.981C299.313 164.566 299.979 165.298 299.979 166.754V168.316C299.979 169.233 299.585 169.835 298.796 170.124L300.482 174.964H298.84L298.837 174.958ZM307.837 174.958H306.4V169.123L305.118 174.958H304.1L302.78 169.123V174.958H301.327V164.561H302.826L304.593 171.684L306.337 164.561H307.837V174.958Z" fill="white"/>
<path d="M297.825 166.036H297.294V169.016H297.638C297.847 169.016 297.99 169.002 298.067 168.974C298.339 168.864 298.474 168.644 298.474 168.311V166.748C298.474 166.275 298.257 166.039 297.822 166.039L297.825 166.036Z" fill="white"/>
<path d="M156 133H169.446C177.197 133.022 181.07 137.267 181.07 145.736V180.797C181.07 189.246 177.009 193.481 168.89 193.503H156V133ZM164.727 141.604V184.899H168.552C171.08 184.899 172.346 183.532 172.346 180.797V145.736C172.346 142.982 171.08 141.604 168.552 141.604H164.727Z" fill="white"/>
<path d="M188.472 193.503V133H197.199V184.899H211.107V193.503H188.472Z" fill="white"/>
<path d="M241.111 180.643C241.111 189.114 236.926 193.357 228.559 193.379C220.211 193.379 216.04 189.133 216.04 180.643V133H224.767V180.643C224.767 183.377 226.033 184.745 228.562 184.745C231.09 184.745 232.386 183.377 232.386 180.643V133H241.113V180.643H241.111Z" fill="white"/>
<path d="M241.105 157.039H164.735V169.464H241.105V157.039Z" fill="#0080FF"/>
</svg>
