<svg width="158" height="33" viewBox="0 0 158 33" fill="none" xmlns="http://www.w3.org/2000/svg">
<path d="M7.26406 32.294C4.91206 32.294 3.21339 31.8171 2.16806 30.8632C1.12273 29.9093 0.580461 28.3348 0.541261 26.1396C0.515128 24.2841 0.495528 22.5528 0.482461 20.9456C0.469394 19.3384 0.462861 17.7769 0.462861 16.2612C0.462861 14.7324 0.469394 13.1775 0.482461 11.5964C0.495528 10.0023 0.515128 8.3036 0.541261 6.5004C0.580461 4.29213 1.12273 2.7176 2.16806 1.7768C3.21339 0.822931 4.91206 0.345997 7.26406 0.345997C9.58993 0.345997 11.269 0.822931 12.3013 1.7768C13.3466 2.7176 13.8954 4.29213 13.9477 6.5004C13.9999 8.3036 14.0326 10.0023 14.0457 11.5964C14.0718 13.1775 14.0849 14.7324 14.0849 16.2612C14.0849 17.79 14.0718 19.358 14.0457 20.9652C14.0326 22.5593 13.9999 24.2841 13.9477 26.1396C13.8954 28.3348 13.3466 29.9093 12.3013 30.8632C11.269 31.8171 9.58993 32.294 7.26406 32.294ZM7.26406 29.0992C8.32246 29.0992 9.06073 28.8967 9.47886 28.4916C9.91006 28.0865 10.1322 27.3548 10.1453 26.2964C10.2106 24.4279 10.2563 22.6835 10.2825 21.0632C10.3086 19.4429 10.3217 17.8684 10.3217 16.3396C10.3217 14.7977 10.3086 13.2167 10.2825 11.5964C10.2563 9.96307 10.2106 8.21213 10.1453 6.3436C10.1322 5.29827 9.91006 4.56653 9.47886 4.1484C9.06073 3.73026 8.32246 3.5212 7.26406 3.5212C6.20566 3.5212 5.46086 3.73026 5.02966 4.1484C4.59846 4.56653 4.36979 5.29827 4.34366 6.3436C4.29139 8.17293 4.25219 9.8912 4.22606 11.4984C4.19993 13.1056 4.18686 14.6801 4.18686 16.222C4.18686 17.7639 4.19993 19.3515 4.22606 20.9848C4.25219 22.6181 4.29139 24.3887 4.34366 26.2964C4.36979 27.3548 4.59846 28.0865 5.02966 28.4916C5.46086 28.8967 6.20566 29.0992 7.26406 29.0992ZM18.3289 32V0.639999H25.5221L27.4233 10.5772L29.9321 28.5896H31.6177L31.0493 12.3216L30.8141 0.639999H34.6361V32H27.1881L25.1693 21.0044L23.0917 4.0112H21.3473L21.8569 20.2008L22.1509 32H18.3289ZM47.4609 32V0.639999H53.9877C56.2874 0.639999 57.9404 1.10387 58.9465 2.0316C59.9657 2.94626 60.4949 4.45546 60.5341 6.5592C60.5733 8.88507 60.5994 11.0933 60.6125 13.184C60.6256 15.2747 60.6256 17.3653 60.6125 19.456C60.5994 21.5336 60.5733 23.7353 60.5341 26.0612C60.4949 28.178 59.9788 29.7003 58.9857 30.628C57.9926 31.5427 56.3789 32 54.1445 32H47.4609ZM51.2633 28.6092H54.1445C55.0592 28.6092 55.7125 28.4393 56.1045 28.0996C56.5096 27.7468 56.7186 27.1849 56.7317 26.414C56.784 24.5585 56.8166 22.8076 56.8297 21.1612C56.8558 19.5017 56.8689 17.8815 56.8689 16.3004C56.8689 14.7193 56.8558 13.1056 56.8297 11.4592C56.8166 9.79973 56.784 8.04227 56.7317 6.1868C56.7186 5.42893 56.503 4.88013 56.0849 4.5404C55.6668 4.20067 54.9677 4.0308 53.9877 4.0308H51.2633V28.6092ZM64.8406 32V0.639999H76.2282V4.0308H68.643V14.4776H75.8362V17.8684H68.643V28.6092H76.2282V32H64.8406ZM79.6172 32V0.639999H87.32L89.3584 13.2428L90.4168 28.5112H91.6712L92.6904 13.2428L94.768 0.639999H102.432V32H98.5312V22.2392L99.1192 4.0308H97.414L95.4736 22.9448L93.69 31.902H88.2804L86.5948 22.9448L84.6544 4.0308H82.9492L83.5176 22.2392V32H79.6172ZM105.675 32L109.301 0.639999H116.612L120.218 32H116.318L115.553 23.7092H110.34L109.575 32H105.675ZM110.673 20.3184H115.22L114.593 13.6152L113.809 4.0308H112.084L111.3 13.6152L110.673 20.3184ZM123.449 32V0.639999H130.642L132.544 10.5772L135.052 28.5896H136.738L136.17 12.3216L135.934 0.639999H139.756V32H132.308L130.29 21.0044L128.212 4.0112H126.468L126.977 20.2008L127.271 32H123.449ZM144.312 32V0.639999H150.839C153.139 0.639999 154.792 1.10387 155.798 2.0316C156.817 2.94626 157.346 4.45546 157.386 6.5592C157.425 8.88507 157.451 11.0933 157.464 13.184C157.477 15.2747 157.477 17.3653 157.464 19.456C157.451 21.5336 157.425 23.7353 157.386 26.0612C157.346 28.178 156.83 29.7003 155.837 30.628C154.844 31.5427 153.23 32 150.996 32H144.312ZM148.115 28.6092H150.996C151.911 28.6092 152.564 28.4393 152.956 28.0996C153.361 27.7468 153.57 27.1849 153.583 26.414C153.636 24.5585 153.668 22.8076 153.681 21.1612C153.707 19.5017 153.72 17.8815 153.72 16.3004C153.72 14.7193 153.707 13.1056 153.681 11.4592C153.668 9.79973 153.636 8.04227 153.583 6.1868C153.57 5.42893 153.355 4.88013 152.936 4.5404C152.518 4.20067 151.819 4.0308 150.839 4.0308H148.115V28.6092Z" fill="#D0FF00"/>
</svg>
