<svg width="208" height="207" viewBox="0 0 208 207" fill="none" xmlns="http://www.w3.org/2000/svg">
<rect width="104" height="104" fill="#1262E1"/>
<rect x="104" y="103" width="104" height="104" fill="#1262E1" fill-opacity="0.5"/>
<path d="M32.4512 84V28.2225H38.5519V53.1132H47.058V28.2225H53.1586V84H47.058V58.5515H38.5519V84H32.4512ZM60.0268 84V28.2225H77.8756V33.6608H66.1274V53.1132H77.1783V58.5515H66.1274V78.5617H77.8756V84H60.0268ZM82.9042 84V28.2225H89.0049V78.5617H100.788V84H82.9042ZM105.033 84V28.2225H111.133V78.5617H122.916V84H105.033ZM187.872 71.9033L186.93 42.2018V28.2225H193.205V42.2018L192.299 71.9033H187.872ZM185.675 84V76.8884H194.495V84H185.675Z" fill="#D0FF00"/>
<circle cx="152.215" cy="54.2989" r="28.9522" fill="#D0FF00"/>
<path d="M159.366 49.9121C159.366 49.3543 158.914 48.9021 158.356 48.9021H149.266C148.709 48.9021 148.256 49.3543 148.256 49.9121C148.256 50.4699 148.709 50.922 149.266 50.922H157.346V59.0017C157.346 59.5595 157.798 60.0117 158.356 60.0117C158.914 60.0117 159.366 59.5595 159.366 59.0017V49.9121ZM146.787 62.909L159.07 50.6262L157.642 49.1979L145.359 61.4807L146.787 62.909Z" fill="black"/>
</svg>
