<svg width="133" height="133" viewBox="0 0 133 133" fill="none" xmlns="http://www.w3.org/2000/svg">
<path d="M60.792 132.146C27.7407 132.146 0.854492 105.26 0.854492 72.2084C0.854492 39.1571 27.7407 12.2709 60.792 12.2709C72.574 12.2709 83.9964 15.713 93.8318 22.2205C95.139 23.0882 95.5044 24.8635 94.6367 26.1764C93.7576 27.495 91.988 27.8432 90.6808 26.9812C81.7872 21.096 71.4495 17.9792 60.792 17.9792C30.8917 17.9792 6.56283 42.3081 6.56283 72.2084C6.56283 102.109 30.8917 126.438 60.792 126.438C90.6922 126.438 115.021 102.109 115.021 72.2084C115.021 61.5509 111.91 51.2131 106.019 42.3195C105.151 41.0066 105.511 39.2313 106.824 38.3637C108.131 37.5017 109.901 37.8499 110.78 39.1685C117.293 48.9983 120.729 60.4264 120.729 72.2084C120.729 105.26 93.8432 132.146 60.792 132.146Z" fill="#D0FF00"/>
<path d="M60.7923 86.4792C52.9205 86.4792 46.5215 80.0744 46.5215 72.2083C46.5215 64.3422 52.9205 57.9375 60.7923 57.9375C68.6641 57.9375 75.0632 64.3422 75.0632 72.2083C75.0632 80.0744 68.6641 86.4792 60.7923 86.4792ZM60.7923 63.6458C56.0715 63.6458 52.2298 67.4875 52.2298 72.2083C52.2298 76.9291 56.0715 80.7708 60.7923 80.7708C65.5131 80.7708 69.3548 76.9291 69.3548 72.2083C69.3548 67.4875 65.5131 63.6458 60.7923 63.6458Z" fill="#D0FF00"/>
<path d="M60.7921 75.0625C60.0615 75.0625 59.3308 74.7828 58.7714 74.2291C57.6582 73.116 57.6582 71.3064 58.7714 70.1933L103.605 25.3601V15.125C103.605 14.3658 103.907 13.6409 104.438 13.1043L115.855 1.68762C116.677 0.871324 117.904 0.620158 118.966 1.07112C120.033 1.51637 120.73 2.55528 120.73 3.70837V12.2709H129.292C130.445 12.2709 131.49 12.9673 131.929 14.0347C132.369 15.1022 132.123 16.3295 131.313 17.1458L119.896 28.5624C119.36 29.099 118.635 29.3959 117.875 29.3959H107.64L62.8072 74.2291C62.2534 74.7828 61.5228 75.0625 60.7921 75.0625ZM109.313 23.6875H116.694L122.402 17.9792H117.875C116.3 17.9792 115.021 16.7005 115.021 15.125V10.5983L109.313 16.3067V23.6875Z" fill="#D0FF00"/>
<path d="M60.7917 109.313C40.333 109.313 23.6875 92.6671 23.6875 72.2084C23.6875 51.7497 40.333 35.1042 60.7917 35.1042C66.3288 35.1042 71.7003 36.3315 76.7579 38.7519C78.1793 39.4369 78.7786 41.138 78.0993 42.5593C77.42 43.9807 75.7133 44.5801 74.2919 43.9008C70.0106 41.8515 65.4668 40.8126 60.7917 40.8126C43.484 40.8126 29.3958 54.895 29.3958 72.2084C29.3958 89.5218 43.484 103.604 60.7917 103.604C78.0993 103.604 92.1875 89.5218 92.1875 72.2084C92.1875 67.5333 91.1429 62.9895 89.0936 58.7025C88.4143 57.2811 89.0137 55.58 90.435 54.895C91.8393 54.21 93.5575 54.8037 94.2425 56.2365C96.6685 61.2998 97.8958 66.6713 97.8958 72.2084C97.8958 92.6671 81.2503 109.313 60.7917 109.313Z" fill="#D0FF00"/>
</svg>
