<svg width="170" height="100" viewBox="0 0 170 100" fill="none" xmlns="http://www.w3.org/2000/svg">
<path d="M84.9982 99.5833C41.3578 99.5833 2.47031 54.2216 0.834063 52.2879C-0.278021 50.9633 -0.278021 49.0295 0.834063 47.712C2.47031 45.7783 41.3578 0.416626 84.9982 0.416626C135.857 0.416626 168.029 46.0404 169.368 47.9883C170.282 49.3058 170.189 51.0695 169.162 52.2879C167.526 54.2216 128.639 99.5833 84.9982 99.5833ZM8.2999 50C16.7503 59.1375 50.0136 92.5 84.9982 92.5C120.28 92.5 153.735 58.6558 161.881 49.8087C154.826 40.8129 125.933 7.49996 84.9982 7.49996C49.9641 7.49996 16.7361 40.8554 8.2999 50Z" fill="white"/>
<path d="M85.0003 78.3333C69.3745 78.3333 56.667 65.6258 56.667 50C56.667 34.3741 69.3745 21.6666 85.0003 21.6666C100.626 21.6666 113.334 34.3741 113.334 50C113.334 65.6258 100.626 78.3333 85.0003 78.3333ZM85.0003 28.75C73.2845 28.75 63.7503 38.2841 63.7503 50C63.7503 61.7158 73.2845 71.25 85.0003 71.25C96.7162 71.25 106.25 61.7158 106.25 50C106.25 38.2841 96.7162 28.75 85.0003 28.75Z" fill="white"/>
</svg>
