<svg width="21" height="21" viewBox="0 0 21 21" fill="none" xmlns="http://www.w3.org/2000/svg">
<g clip-path="url(#clip0_2164_5810)">
<path d="M0 0.000749595C2.06531 0.000749595 4.13051 0.000749595 6.19582 0C6.23576 0 6.2606 0.00920931 6.28479 0.0437977C7.32319 1.52457 8.36301 3.00427 9.40251 4.48429C10.1457 5.5425 10.8886 6.60093 11.6316 7.65925C11.6449 7.6781 11.6588 7.69652 11.6755 7.71943C11.799 7.57915 11.919 7.44294 12.0389 7.30662C14.1686 4.88457 16.2983 2.46242 18.429 0.0411206C18.4465 0.0213099 18.4787 0.00246295 18.5041 0.00235587C19.0911 0.00021417 19.678 0.00064251 20.2649 0.000749595C20.2771 0.000749595 20.2893 0.00182044 20.3108 0.00278421C20.2906 0.0274137 20.2757 0.046582 20.2597 0.0646793C18.5602 1.99746 16.8606 3.93023 15.1609 5.86301C14.2861 6.85772 13.4115 7.85265 12.5355 8.84629C12.5019 8.88441 12.507 8.9069 12.5338 8.94491C13.4422 10.2361 14.3491 11.5283 15.2565 12.8202C16.3094 14.3193 17.3626 15.8183 18.4155 17.3173C19.2652 18.5269 20.1146 19.7365 20.9641 20.9461C20.9765 20.9638 20.9881 20.982 21 20.9999H14.7438C14.7305 20.9788 14.7183 20.957 14.7039 20.9366C14.5657 20.7397 14.427 20.543 14.2888 20.346C13.4478 19.1483 12.6069 17.9505 11.7659 16.7528C10.8701 15.4772 9.97418 14.2018 9.07826 12.9263C9.06031 12.9007 9.04182 12.8755 9.02125 12.8469C9.0045 12.8652 8.99345 12.8769 8.98283 12.889C8.05595 13.943 7.12906 14.997 6.20217 16.0511C4.80472 17.6402 3.40727 19.2294 2.01005 20.8188C1.95818 20.8778 1.90959 20.9395 1.85947 20.9999C1.2542 20.9999 0.648932 20.9999 0.0436634 20.9995C0.0291089 20.9995 0.0145545 20.9928 0.000109432 20.9892C0.0130224 20.9773 0.0272486 20.9665 0.0387389 20.9533C1.33321 19.4816 2.62746 18.0099 3.92171 16.538C5.3324 14.9337 6.74298 13.3294 8.15476 11.726C8.18891 11.6873 8.19285 11.6627 8.16166 11.6191C7.95603 11.3312 7.75391 11.0408 7.55059 10.7513C6.74232 9.60059 5.93395 8.44986 5.12579 7.29912C4.33416 6.17184 3.54264 5.04445 2.75101 3.91717C1.90565 2.71353 1.06029 1.50979 0.214596 0.30637C0.144669 0.206995 0.0715685 0.109655 0 0.0114581V0.000749595ZM2.52427 1.36726C2.53904 1.38953 2.54834 1.40463 2.55874 1.41909C4.02819 3.47555 5.49764 5.53179 6.9671 7.58825C8.54511 9.79667 10.1231 12.0052 11.7011 14.2135C12.9961 16.0258 14.2914 17.838 15.5855 19.6509C15.6094 19.6844 15.6335 19.6962 15.6746 19.6962C16.5824 19.6951 17.4902 19.6954 18.398 19.6954H18.4594C18.4451 19.6726 18.4368 19.6575 18.4267 19.6434C17.1548 17.8633 15.8826 16.0831 14.6106 14.3029C13.2664 12.422 11.9222 10.541 10.5781 8.65996C8.85075 6.24252 7.12337 3.82518 5.39675 1.4072C5.37421 1.37572 5.35101 1.36383 5.31205 1.36383C4.40245 1.3648 3.49274 1.36458 2.58314 1.36469C2.56706 1.36469 2.55108 1.36598 2.52438 1.36715L2.52427 1.36726Z" fill="white"/>
</g>
<defs>
<clipPath id="clip0_2164_5810">
<rect width="21" height="21" fill="white"/>
</clipPath>
</defs>
</svg>
