<svg width="68" height="106" viewBox="0 0 68 106" fill="none" xmlns="http://www.w3.org/2000/svg">
<g clip-path="url(#clip0_2115_2989)">
<path d="M0.175781 0H7.77268C12.1539 0.0104536 14.3445 2.39389 14.3445 7.14333V26.8101C14.3445 31.5491 12.0486 33.9256 7.46024 33.936H0.175781V0ZM5.10815 4.8261V29.1134H7.27067C8.69948 29.1134 9.41564 28.3468 9.41564 26.8136V7.14333C9.41564 5.59967 8.69948 4.8261 7.27067 4.8261H5.10815Z" fill="white"/>
<path d="M32.3468 26.7824C32.3468 31.5353 29.9807 33.9152 25.2555 33.9257C20.5372 33.9257 18.1816 31.5457 18.1816 26.7824V7.13647C18.1781 2.38354 20.5372 0.00708008 25.252 0.00708008C29.9667 0.00708008 32.3433 2.38354 32.3433 7.13298V26.7789L32.3468 26.7824ZM27.4145 7.13647C27.4145 5.61372 26.6983 4.84712 25.2695 4.83667H25.2344C23.8161 4.83667 23.107 5.60327 23.107 7.13647V26.7824C23.107 28.3156 23.8232 29.0822 25.252 29.0822C26.6808 29.0822 27.4145 28.3156 27.4145 26.7824V7.13647Z" fill="white"/>
<path d="M36.5273 0H41.4597L46.1288 19.6842V0H50.6961V33.9395H45.7637L41.2666 14.8755V33.9395H36.5273V0Z" fill="white"/>
<path d="M68.0003 0V4.8261H63.3804V33.9395H58.4481V4.8261H53.8281V0H67.9968H68.0003Z" fill="white"/>
<path d="M0.175781 69.9698V36.0303H5.10815V65.1437H12.9683V69.9698H0.175781Z" fill="white"/>
<path d="M29.7482 62.8334C29.7482 67.5864 27.3821 69.9663 22.6568 69.9768C17.9386 69.9768 15.583 67.5968 15.583 62.8334V43.1492C15.583 38.3998 17.9421 36.0233 22.6568 36.0233C27.3715 36.0233 29.7482 38.3998 29.7482 43.1492V62.8334ZM24.8158 43.1492C24.8158 41.6265 24.0997 40.8599 22.6709 40.8494H22.6358C21.2175 40.8494 20.5084 41.616 20.5084 43.1492V62.8334C20.5084 64.3666 21.2245 65.1332 22.6533 65.1332C24.0821 65.1332 24.8158 64.3666 24.8158 62.8334V43.1492Z" fill="white"/>
<path d="M47.7511 62.8334C47.7511 67.5864 45.385 69.9663 40.6598 69.9768C35.9415 69.9768 33.5859 67.5968 33.5859 62.8334V43.1492C33.5859 38.3998 35.9451 36.0233 40.6598 36.0233C45.3745 36.0233 47.7511 38.3998 47.7511 43.1492V62.8334ZM42.8188 43.1492C42.8188 41.6265 42.1026 40.8599 40.6738 40.8494H40.6387C39.2204 40.8494 38.5113 41.616 38.5113 43.1492V62.8334C38.5113 64.3666 39.2274 65.1332 40.6563 65.1332C42.0851 65.1332 42.8188 64.3666 42.8188 62.8334V43.1492Z" fill="white"/>
<path d="M60.8735 53L67.3926 69.9698H62.1127L56.8679 54.8852V69.9698H51.9355V36.0303H56.8679V51.1323L62.1127 36.0303H67.3926L60.8735 53Z" fill="white"/>
<path d="M14.1691 98.8532C14.1691 103.606 11.803 105.986 7.07773 105.997C2.35951 105.997 0.00390625 103.617 0.00390625 98.8532V72.0605H4.93628V98.8532C4.93628 100.386 5.65244 101.153 7.08124 101.153C8.51005 101.153 9.24376 100.386 9.24376 98.8532V72.0605H14.1761V98.8532H14.1691Z" fill="white"/>
<path d="M18.5254 72.0605H25.7045C30.0857 72.0709 32.2763 74.4544 32.2763 79.2038V84.3052C32.2763 87.8107 30.7001 90.0721 27.5546 91.0861C26.7998 91.33 25.701 91.4485 24.2617 91.4485H23.4613V105.997H18.5289V72.057L18.5254 72.0605ZM23.4578 76.8866V86.6085H24.5917C25.2762 86.6085 25.7467 86.5632 26.0029 86.4691C26.8981 86.1102 27.344 85.3924 27.344 84.3052V79.2038C27.344 77.6602 26.6278 76.8866 25.199 76.8866H23.4578Z" fill="white"/>
<path d="M63.3762 13.4852H5.04785V20.4543H63.3762V13.4852Z" fill="#0080FF"/>
<path d="M56.8645 49.5155H5.10449V56.4846H56.8645V49.5155Z" fill="#0080FF"/>
<path d="M23.4539 85.5422H4.93555V92.5113H23.4539V85.5422Z" fill="#0080FF"/>
<path d="M67.3895 72.0605H34.3936V106.004H67.3895V72.0605Z" fill="#145DDD"/>
<path d="M45.3745 84.7617L45.8204 88.1208H44.4302L44.1634 86.1137H42.7591L42.4853 88.1208H41.0986L41.5445 84.7756L42.5169 78.6498H44.4021L45.371 84.7617H45.3745ZM43.9843 84.7617L43.4577 80.8241L42.9312 84.7617H43.9808H43.9843Z" fill="white"/>
<path d="M50.5037 86.2844C50.5037 87.6085 49.8437 88.2741 48.5237 88.2776C47.2073 88.2776 46.5508 87.612 46.5508 86.2844V80.4931C46.5508 79.169 47.2073 78.5034 48.5237 78.5034C49.8402 78.5034 50.5037 79.1655 50.5037 80.4931V81.7684H49.1275V80.4931C49.1275 80.068 48.9274 79.8554 48.5308 79.8519H48.5202C48.1235 79.8519 47.9269 80.0645 47.9269 80.4931V86.2844C47.9269 86.713 48.127 86.9256 48.5237 86.9256C48.9204 86.9256 49.1275 86.713 49.1275 86.2844V85.0091H50.5037V86.2844Z" fill="white"/>
<path d="M55.4605 84.7617L55.9063 88.1208H54.5161L54.2493 86.1137H52.8451L52.5712 88.1208H51.1846L51.6304 84.7756L52.6028 78.6498H54.488L55.4569 84.7617H55.4605ZM54.0703 84.7617L53.5437 80.8241L53.0171 84.7617H54.0668H54.0703Z" fill="white"/>
<path d="M56.7344 78.6532H58.8548C60.0764 78.6532 60.6873 79.3222 60.6873 80.6464V86.1345C60.6873 87.4587 60.0484 88.1207 58.767 88.1242H56.7344V78.6532ZM58.1105 79.9982V86.7757H58.7143C59.1146 86.7757 59.3111 86.5631 59.3111 86.1345V80.6464C59.3111 80.2143 59.111 79.9982 58.7143 79.9982H58.1105Z" fill="white"/>
<path d="M41.5371 90.0895H45.1074V91.4345H42.9133V94.1455H44.7984V95.4975H42.9133V98.2085H45.1074V99.5535H41.5371V90.0825V90.0895Z" fill="white"/>
<path d="M49.1234 96.5743L50.7243 90.0861H52.1004V99.5571H50.7839V94.2431L49.6079 99.5571H48.6741L47.4629 94.2431V99.5571H46.1289V90.0861H47.5051L49.1234 96.5743Z" fill="white"/>
<path d="M54.3856 90.0896L55.3229 93.7832L56.2603 90.0896H57.7207L56.0531 95.4628L56.0145 95.5778V99.5606H54.6384V95.5778L54.5962 95.4628L52.9287 90.0896H54.3891H54.3856Z" fill="white"/>
</g>
<defs>
<clipPath id="clip0_2115_2989">
<rect width="68" height="106" fill="white"/>
</clipPath>
</defs>
</svg>
