<svg width="85" height="134" viewBox="0 0 85 134" fill="none" xmlns="http://www.w3.org/2000/svg">
<g clip-path="url(#clip0_3490_1138)">
<path d="M0.219727 0H9.71585C15.1924 0.013215 17.9306 3.02623 17.9306 9.03024V33.892C17.9306 39.8828 15.0607 42.887 9.3253 42.9003H0.219727V0ZM6.38519 6.10092V36.8037H9.08834C10.8743 36.8037 11.7695 35.8346 11.7695 33.8964V9.03024C11.7695 7.07883 10.8743 6.10092 9.08834 6.10092H6.38519Z" fill="black"/>
<path d="M40.4331 33.8568C40.4331 39.8652 37.4754 42.8738 31.5688 42.887C25.6711 42.887 22.7266 39.8784 22.7266 33.8568V9.02141C22.7222 3.013 25.6711 0.00878906 31.5645 0.00878906C37.4579 0.00878906 40.4287 3.013 40.4287 9.01701V33.8524L40.4331 33.8568ZM34.2676 9.02141C34.2676 7.09643 33.3724 6.12733 31.5864 6.11411H31.5425C29.7697 6.11411 28.8833 7.08321 28.8833 9.02141V33.8568C28.8833 35.795 29.7785 36.7641 31.5645 36.7641C33.3505 36.7641 34.2676 35.795 34.2676 33.8568V9.02141Z" fill="black"/>
<path d="M45.6592 0H51.8246L57.661 24.8838V0H63.3701V42.9047H57.2046L51.5833 18.8049V42.9047H45.6592V0Z" fill="black"/>
<path d="M85.0004 0V6.10092H79.2255V42.9047H73.0601V6.10092H67.2852V0H84.9961H85.0004Z" fill="black"/>
<path d="M0.219727 88.4525V45.5479H6.38519V82.3516H16.2104V88.4525H0.219727Z" fill="black"/>
<path d="M37.186 79.4311C37.186 85.4395 34.2283 88.4481 28.3218 88.4614C22.424 88.4614 19.4795 85.4527 19.4795 79.4311V54.5473C19.4795 48.5433 22.4284 45.5391 28.3218 45.5391C34.2152 45.5391 37.186 48.5433 37.186 54.5473V79.4311ZM31.0205 54.5473C31.0205 52.6223 30.1253 51.6532 28.3393 51.64H28.2954C26.5226 51.64 25.6362 52.6091 25.6362 54.5473V79.4311C25.6362 81.3693 26.5314 82.3384 28.3174 82.3384C30.1034 82.3384 31.0205 81.3693 31.0205 79.4311V54.5473Z" fill="black"/>
<path d="M59.6889 79.4311C59.6889 85.4395 56.7313 88.4481 50.8247 88.4614C44.9269 88.4614 41.9824 85.4527 41.9824 79.4311V54.5473C41.9824 48.5433 44.9313 45.5391 50.8247 45.5391C56.7181 45.5391 59.6889 48.5433 59.6889 54.5473V79.4311ZM53.5235 54.5473C53.5235 52.6223 52.6283 51.6532 50.8423 51.64H50.7984C49.0255 51.64 48.1391 52.6091 48.1391 54.5473V79.4311C48.1391 81.3693 49.0343 82.3384 50.8203 82.3384C52.6063 82.3384 53.5235 81.3693 53.5235 79.4311V54.5473Z" fill="black"/>
<path d="M76.0924 67.0002L84.2413 88.4525H77.6414L71.0854 69.3833V88.4525H64.9199V45.5479H71.0854V64.6391L77.6414 45.5479H84.2413L76.0924 67.0002Z" fill="black"/>
<path d="M17.7104 124.965C17.7104 130.974 14.7527 133.982 8.84619 133.995C2.94841 133.995 0.00390625 130.987 0.00390625 124.965V91.0952H6.16937V124.965C6.16937 126.903 7.06457 127.873 8.85058 127.873C10.6366 127.873 11.5537 126.903 11.5537 124.965V91.0952H17.7192V124.965H17.7104Z" fill="black"/>
<path d="M23.1562 91.0952H32.1302C37.6067 91.1084 40.3449 94.1215 40.3449 100.125V106.574C40.3449 111.006 38.3746 113.865 34.4428 115.147C33.4993 115.455 32.1258 115.605 30.3266 115.605H29.3261V133.995H23.1606V91.0908L23.1562 91.0952ZM29.3217 97.1961V109.486H30.7391C31.5948 109.486 32.1828 109.429 32.5032 109.31C33.6222 108.856 34.1795 107.949 34.1795 106.574V100.125C34.1795 98.1741 33.2843 97.1961 31.4983 97.1961H29.3217Z" fill="black"/>
<path d="M79.221 17.0474H6.31055V25.8574H79.221V17.0474Z" fill="#85D3D3"/>
<path d="M71.0809 62.5952H6.38086V71.4052H71.0809V62.5952Z" fill="#85D3D3"/>
<path d="M29.3178 108.138H6.16992V116.948H29.3178V108.138Z" fill="#85D3D3"/>
<path d="M84.245 91H43V133.909H84.245V91Z" fill="#06B5B9"/>
<path d="M52.5977 99.3726H57.0298V101.064H54.3047V104.469H56.648V106.165H54.3047V111.262H52.5977V99.3682V99.3726Z" fill="white"/>
<path d="M62.6154 107.046L63.1727 111.266H61.4438L61.1103 108.746H59.3637L59.0258 111.266H57.3057L57.863 107.064L59.0697 99.3726H61.413L62.6154 107.046ZM60.8865 107.046L60.2326 102.099L59.5788 107.046H60.8821H60.8865Z" fill="white"/>
<path d="M64.0771 101.681C64.0771 100.016 64.8934 99.1831 66.5302 99.1831C68.167 99.1831 68.9876 100.016 68.9876 101.681V103.28H67.2806V101.681C67.2806 101.148 67.0348 100.879 66.5389 100.875H66.5258C66.0343 100.875 65.7886 101.143 65.7886 101.681V102.76C65.7886 103.289 66.3239 103.936 67.3903 104.707C68.4566 105.469 68.992 106.385 68.992 107.451V108.953C68.992 110.623 68.1758 111.455 66.5389 111.455C64.9021 111.455 64.0815 110.618 64.0815 108.953V107.354H65.7886V108.953C65.7886 109.491 66.0387 109.759 66.5389 109.759C67.0392 109.759 67.2806 109.491 67.2806 108.953V107.597C67.2806 107.024 66.7496 106.35 65.6788 105.584C64.6125 104.822 64.0771 103.892 64.0771 102.795V101.681Z" fill="white"/>
<path d="M70.4355 99.3726H72.1426V104.469H73.6346V99.3726H75.3416V111.266H73.6346V106.169H72.1426V111.266H70.4355V99.3726Z" fill="white"/>
<path d="M52.6279 113.394H54.335V125.287H52.6279V113.394Z" fill="white"/>
<path d="M60.7239 122.974C60.7239 124.639 59.9033 125.472 58.2665 125.476C56.6341 125.476 55.8135 124.644 55.8135 122.974V115.702C55.8135 114.037 56.6297 113.204 58.2665 113.204C59.9033 113.204 60.7239 114.037 60.7239 115.702V122.974ZM59.0169 115.702C59.0169 115.169 58.7711 114.9 58.2753 114.896H58.2621C57.7706 114.896 57.5249 115.164 57.5249 115.702V122.974C57.5249 123.512 57.7706 123.781 58.2665 123.781C58.7624 123.781 59.0169 123.512 59.0169 122.974V115.702Z" fill="white"/>
<path d="M62.1729 113.394H63.8799L65.4991 120.292V113.394H67.0789V125.287H65.3719L63.8141 118.609V125.287H62.1729V113.394Z" fill="white"/>
</g>
<defs>
<clipPath id="clip0_3490_1138">
<rect width="85" height="134" fill="white"/>
</clipPath>
</defs>
</svg>
