<svg width="85" height="134" viewBox="0 0 85 134" fill="none" xmlns="http://www.w3.org/2000/svg">
<g clip-path="url(#clip0_3490_1160)">
<path d="M0.219727 0H9.71585C15.1924 0.013215 17.9306 3.02623 17.9306 9.03024V33.892C17.9306 39.8828 15.0607 42.887 9.3253 42.9003H0.219727V0ZM6.38519 6.10092V36.8037H9.08834C10.8743 36.8037 11.7695 35.8346 11.7695 33.8964V9.03024C11.7695 7.07883 10.8743 6.10092 9.08834 6.10092H6.38519Z" fill="black"/>
<path d="M40.4331 33.8568C40.4331 39.8652 37.4754 42.8738 31.5688 42.887C25.6711 42.887 22.7266 39.8784 22.7266 33.8568V9.02141C22.7222 3.013 25.6711 0.00878906 31.5645 0.00878906C37.4579 0.00878906 40.4287 3.013 40.4287 9.01701V33.8524L40.4331 33.8568ZM34.2676 9.02141C34.2676 7.09643 33.3724 6.12733 31.5864 6.11411H31.5425C29.7697 6.11411 28.8833 7.08321 28.8833 9.02141V33.8568C28.8833 35.795 29.7785 36.7641 31.5645 36.7641C33.3505 36.7641 34.2676 35.795 34.2676 33.8568V9.02141Z" fill="black"/>
<path d="M45.6592 0H51.8246L57.661 24.8838V0H63.3701V42.9047H57.2046L51.5833 18.8049V42.9047H45.6592V0Z" fill="black"/>
<path d="M85.0004 0V6.10092H79.2255V42.9047H73.0601V6.10092H67.2852V0H84.996H85.0004Z" fill="black"/>
<path d="M0.219727 88.4525V45.5479H6.38519V82.3516H16.2104V88.4525H0.219727Z" fill="black"/>
<path d="M37.186 79.4311C37.186 85.4395 34.2283 88.4481 28.3218 88.4614C22.424 88.4614 19.4795 85.4527 19.4795 79.4311V54.5473C19.4795 48.5433 22.4284 45.5391 28.3218 45.5391C34.2152 45.5391 37.186 48.5433 37.186 54.5473V79.4311ZM31.0205 54.5473C31.0205 52.6223 30.1253 51.6532 28.3393 51.64H28.2954C26.5226 51.64 25.6362 52.6091 25.6362 54.5473V79.4311C25.6362 81.3693 26.5314 82.3384 28.3174 82.3384C30.1034 82.3384 31.0205 81.3693 31.0205 79.4311V54.5473Z" fill="black"/>
<path d="M59.6889 79.4311C59.6889 85.4395 56.7313 88.4481 50.8247 88.4614C44.9269 88.4614 41.9824 85.4527 41.9824 79.4311V54.5473C41.9824 48.5433 44.9313 45.5391 50.8247 45.5391C56.7181 45.5391 59.6889 48.5433 59.6889 54.5473V79.4311ZM53.5235 54.5473C53.5235 52.6223 52.6283 51.6532 50.8423 51.64H50.7984C49.0255 51.64 48.1391 52.6091 48.1391 54.5473V79.4311C48.1391 81.3693 49.0343 82.3384 50.8203 82.3384C52.6063 82.3384 53.5235 81.3693 53.5235 79.4311V54.5473Z" fill="black"/>
<path d="M76.0924 67.0002L84.2413 88.4525H77.6414L71.0854 69.3833V88.4525H64.9199V45.5479H71.0854V64.6391L77.6414 45.5479H84.2413L76.0924 67.0002Z" fill="black"/>
<path d="M17.7104 124.965C17.7104 130.974 14.7527 133.982 8.84619 133.995C2.94841 133.995 0.00390625 130.987 0.00390625 124.965V91.0952H6.16937V124.965C6.16937 126.903 7.06457 127.873 8.85058 127.873C10.6366 127.873 11.5537 126.903 11.5537 124.965V91.0952H17.7192V124.965H17.7104Z" fill="black"/>
<path d="M23.1562 91.0952H32.1302C37.6067 91.1084 40.3449 94.1215 40.3449 100.125V106.574C40.3449 111.006 38.3746 113.865 34.4428 115.147C33.4993 115.455 32.1258 115.605 30.3266 115.605H29.3261V133.995H23.1606V91.0908L23.1562 91.0952ZM29.3217 97.1961V109.486H30.7391C31.5948 109.486 32.1828 109.429 32.5032 109.31C33.6222 108.856 34.1795 107.949 34.1795 106.574V100.125C34.1795 98.1741 33.2843 97.1961 31.4983 97.1961H29.3217Z" fill="black"/>
<path d="M79.221 17.0474H6.31055V25.8574H79.221V17.0474Z" fill="#A9FF66"/>
<path d="M71.0809 62.5952H6.38086V71.4052H71.0809V62.5952Z" fill="#A9FF66"/>
<path d="M29.3178 108.138H6.16992V116.948H29.3178V108.138Z" fill="#A9FF66"/>
<path d="M84.2362 91.0952H42.9912V134.004H84.2362V91.0952Z" fill="#5B9100"/>
<path d="M52.5576 99.315H56.981V101.002H54.2646V104.398H56.6036V106.09H54.2646V109.486H56.981V111.173H52.5576V99.3105V99.315Z" fill="white"/>
<path d="M61.7949 111.182H59.456L58.2492 103.513L57.6963 99.3149H59.4209L60.6189 108.455L61.8256 99.3149H63.5502L62.9973 103.522L61.7993 111.178L61.7949 111.182Z" fill="white"/>
<path d="M64.5732 99.315H68.9966V101.002H66.2803V104.398H68.6192V106.09H66.2803V109.486H68.9966V111.173H64.5732V99.3105V99.315Z" fill="white"/>
<path d="M70.2598 99.3149H71.9624L73.5773 106.196V99.3149H75.157V111.178H73.4544L71.901 104.513V111.178H70.2642V99.3149H70.2598Z" fill="white"/>
<path d="M56.9725 113.724V115.411H55.3751V125.586H53.6725V115.411H52.0752V113.724H56.9725Z" fill="white"/>
<path d="M57.9375 116.027C57.9375 114.367 58.7537 113.534 60.3817 113.534C62.0098 113.534 62.8348 114.367 62.8348 116.027V117.622H61.1321V116.027C61.1321 115.494 60.8864 115.226 60.3905 115.221H60.3774C59.8859 115.221 59.6445 115.49 59.6445 116.027V117.102C59.6445 117.631 60.1755 118.278 61.2418 119.045C62.3038 119.807 62.8392 120.719 62.8392 121.785V123.282C62.8392 124.948 62.0229 125.78 60.3949 125.78C58.7625 125.78 57.9419 124.943 57.9419 123.282V121.688H59.6445V123.282C59.6445 123.82 59.8946 124.089 60.3905 124.089C60.8864 124.089 61.1321 123.82 61.1321 123.282V121.93C61.1321 121.357 60.6012 120.688 59.5348 119.921C58.4729 119.159 57.9375 118.234 57.9375 117.142V116.027Z" fill="white"/>
</g>
<defs>
<clipPath id="clip0_3490_1160">
<rect width="85" height="134" fill="white"/>
</clipPath>
</defs>
</svg>
