<svg width="109" height="17" viewBox="0 0 109 17" fill="none" xmlns="http://www.w3.org/2000/svg">
<g clip-path="url(#clip0_2683_312)">
<path d="M108.905 0H92.6729V16.8232H108.905V0Z" fill="#F44242"/>
<path d="M97.2207 2.94043H98.3355C98.9797 2.94043 99.3005 3.29331 99.3005 3.99639V6.90496C99.3005 7.60536 98.9637 7.95824 98.29 7.95824H97.2207V2.94043ZM97.9452 3.6542V7.24714H98.2633C98.4718 7.24714 98.5787 7.13486 98.5787 6.90763V3.99906C98.5787 3.77183 98.4745 3.65688 98.2633 3.65688H97.9452V3.6542Z" fill="white"/>
<path d="M99.915 2.94043H101.794V3.6542H100.64V5.09245H101.631V5.8089H100.64V7.24714H101.794V7.96092H99.915V2.94043Z" fill="white"/>
<path d="M102.278 3.91608C102.278 3.213 102.626 2.86279 103.318 2.86279C104.011 2.86279 104.361 3.213 104.361 3.91608V4.59243H103.636V3.91608C103.636 3.69152 103.532 3.57657 103.321 3.57657H103.316C103.107 3.57657 103.003 3.68885 103.003 3.91608V4.37054C103.003 4.5951 103.23 4.86778 103.682 5.19125C104.134 5.51472 104.361 5.89968 104.361 6.35147V6.98504C104.361 7.6908 104.013 8.041 103.321 8.041C102.626 8.041 102.278 7.68813 102.278 6.98504V6.3087H103.003V6.98504C103.003 7.21228 103.11 7.32455 103.321 7.32455C103.532 7.32455 103.636 7.21228 103.636 6.98504V6.41296C103.636 6.16968 103.409 5.88631 102.957 5.56284C102.506 5.23937 102.278 4.84907 102.278 4.38658V3.91608Z" fill="white"/>
<path d="M97.2334 8.85938H97.9579V13.8799H97.2334V8.85938Z" fill="white"/>
<path d="M100.768 12.904C100.768 13.6071 100.421 13.9599 99.7255 13.9599C99.0331 13.9599 98.6855 13.6071 98.6855 12.904V9.83502C98.6855 9.13194 99.0331 8.78174 99.7255 8.78174C100.418 8.78174 100.768 9.13194 100.768 9.83502V10.5114H100.044V9.83502C100.044 9.61047 99.9393 9.49551 99.7281 9.49551H99.7228C99.5143 9.49551 99.41 9.60779 99.41 9.83502V12.904C99.41 13.1312 99.5143 13.2435 99.7255 13.2435C99.9367 13.2435 100.044 13.1312 100.044 12.904V11.7277H99.7281V11.0113H100.768V12.904Z" fill="white"/>
<path d="M101.594 8.85938H102.318L103.005 11.7706V8.85938H103.676V13.8799H102.952L102.291 11.0595V13.8799H101.596V8.85938H101.594Z" fill="white"/>
<path d="M0 0.00537109H3.73729C5.89199 0.0107177 6.96933 1.19232 6.96933 3.54751V13.2944C6.96933 15.6443 5.84119 16.8205 3.58224 16.8259H0V0.00537109ZM2.42737 2.39531V14.4333H3.49135C4.19443 14.4333 4.54464 14.0536 4.54464 13.2917V3.54484C4.54464 2.78027 4.19443 2.39531 3.49135 2.39531H2.42737Z" fill="white"/>
<path d="M15.8258 13.2781C15.8258 15.6333 14.6629 16.8123 12.3371 16.8203C10.0167 16.8203 8.85645 15.6414 8.85645 13.2781V3.53926C8.85645 1.18674 10.0167 0.0078125 12.3371 0.0078125C14.6575 0.0078125 15.8258 1.18407 15.8258 3.53926V13.2755V13.2781ZM13.4011 3.53926C13.4011 2.78539 13.0509 2.40578 12.3478 2.39776H12.3318C11.634 2.39776 11.2865 2.77737 11.2865 3.53926V13.2755C11.2865 14.0347 11.6394 14.417 12.3398 14.417C13.0402 14.417 13.4038 14.0374 13.4038 13.2755V3.53926H13.4011Z" fill="white"/>
<path d="M17.8848 0.00537109H20.3121L22.6085 9.76297V0.00537109H24.8541V16.8259H22.4267L20.2159 7.37837V16.8259H17.8848V0.00537109Z" fill="white"/>
<path d="M33.3685 0.00537109V2.39799H31.0962V16.8259H28.6688V2.39531H26.3965V0.00537109H33.3658H33.3685Z" fill="white"/>
<path d="M31.0938 6.68848H2.39844V10.1424H31.0938V6.68848Z" fill="#F97171"/>
<path d="M36.8252 16.8259V0.00537109H39.2526V14.4333H43.1182V16.8259H36.8252Z" fill="white"/>
<path d="M51.3726 13.289C51.3726 15.6442 50.2098 16.8232 47.884 16.8312C45.5635 16.8312 44.4033 15.6523 44.4033 13.289V3.53145C44.4033 1.17626 45.5635 0 47.884 0C50.2044 0 51.3726 1.17626 51.3726 3.53145V13.289ZM48.9453 3.53145C48.9453 2.77757 48.5951 2.39796 47.892 2.38994H47.876C47.1782 2.38994 46.8307 2.76955 46.8307 3.53145V13.289C46.8307 14.0483 47.1836 14.4306 47.884 14.4306C48.5844 14.4306 48.948 14.0509 48.948 13.289V3.53145H48.9453Z" fill="white"/>
<path d="M60.2301 13.289C60.2301 15.6442 59.0672 16.8232 56.7414 16.8312C54.421 16.8312 53.2607 15.6523 53.2607 13.289V3.53145C53.2607 1.17626 54.421 0 56.7414 0C59.0618 0 60.2301 1.17626 60.2301 3.53145V13.289ZM57.8027 3.53145C57.8027 2.77757 57.4525 2.39796 56.7494 2.38994H56.7334C56.0356 2.38994 55.6881 2.76955 55.6881 3.53145V13.289C55.6881 14.0483 56.041 14.4306 56.7414 14.4306C57.4418 14.4306 57.8054 14.0509 57.8054 13.289V3.53145H57.8027Z" fill="white"/>
<path d="M66.6854 8.41562L69.8907 16.8259H67.2923L64.7125 9.34861V16.8259H62.2852V0.00537109H64.7125V7.49065L67.2923 0.00537109H69.8907L66.6854 8.41562Z" fill="white"/>
<path d="M64.7133 6.68848H39.25V10.1424H64.7133V6.68848Z" fill="#F97171"/>
<path d="M80.3033 13.2837C80.3033 15.6389 79.1404 16.8179 76.8146 16.8259C74.4942 16.8259 73.334 15.6469 73.334 13.2837V0.00537109H75.7614V13.2837C75.7614 14.0429 76.1116 14.4252 76.8146 14.4252C77.5177 14.4252 77.8786 14.0456 77.8786 13.2837V0.00537109H80.306V13.2837H80.3033Z" fill="white"/>
<path d="M82.448 0.00537109H85.9794C88.1341 0.0107177 89.2115 1.19232 89.2115 3.54751V6.07647C89.2115 7.81412 88.4362 8.93424 86.8884 9.43683C86.5168 9.55713 85.9768 9.61594 85.2683 9.61594H84.8727V16.8259H82.4453V0.00537109H82.448ZM84.8727 2.39531V7.21263H85.4287C85.7656 7.21263 85.9982 7.18857 86.1238 7.14312C86.5649 6.96668 86.7841 6.60846 86.7841 6.07112V3.54217C86.7841 2.7776 86.4339 2.39264 85.7308 2.39264H84.8727V2.39531Z" fill="white"/>
<path d="M84.8724 6.68848H75.7617V10.1424H84.8724V6.68848Z" fill="#F97171"/>
</g>
<defs>
<clipPath id="clip0_2683_312">
<rect width="108.906" height="16.8285" fill="white"/>
</clipPath>
</defs>
</svg>
