<svg width="109" height="17" viewBox="0 0 109 17" fill="none" xmlns="http://www.w3.org/2000/svg">
<g clip-path="url(#clip0_2683_335)">
<path d="M0 0.00585938H3.73729C5.89199 0.011206 6.96933 1.19281 6.96933 3.548V13.2949C6.96933 15.6448 5.84119 16.821 3.58224 16.8264H0V0.00585938ZM2.42737 2.3958V14.4337H3.49135C4.19443 14.4337 4.54464 14.0541 4.54464 13.2922V3.54533C4.54464 2.78076 4.19443 2.3958 3.49135 2.3958H2.42737Z" fill="white"/>
<path d="M15.8258 13.2786C15.8258 15.6338 14.6629 16.8128 12.3371 16.8208C10.0167 16.8208 8.85645 15.6418 8.85645 13.2786V3.53975C8.85645 1.18723 10.0167 0.00830078 12.3371 0.00830078C14.6575 0.00830078 15.8258 1.18456 15.8258 3.53975V13.276V13.2786ZM13.4011 3.53975C13.4011 2.78587 13.0509 2.40626 12.3478 2.39824H12.3318C11.634 2.39824 11.2865 2.77785 11.2865 3.53975V13.276C11.2865 14.0352 11.6394 14.4175 12.3398 14.4175C13.0402 14.4175 13.4038 14.0379 13.4038 13.276V3.53975H13.4011Z" fill="white"/>
<path d="M17.8848 0.00537109H20.3121L22.6085 9.76297V0.00537109H24.8541V16.8259H22.4267L20.2159 7.37837V16.8259H17.8848V0.00537109Z" fill="white"/>
<path d="M33.3685 0.00537109V2.39799H31.0962V16.8259H28.6688V2.39531H26.3965V0.00537109H33.3658H33.3685Z" fill="white"/>
<path d="M31.0938 6.68896H2.39844V10.1429H31.0938V6.68896Z" fill="#48A326"/>
<path d="M36.8252 16.8259V0.00537109H39.2526V14.4333H43.1182V16.8259H36.8252Z" fill="white"/>
<path d="M51.3726 13.289C51.3726 15.6442 50.2098 16.8232 47.884 16.8312C45.5635 16.8312 44.4033 15.6523 44.4033 13.289V3.53145C44.4033 1.17626 45.5635 0 47.884 0C50.2044 0 51.3726 1.17626 51.3726 3.53145V13.289ZM48.9453 3.53145C48.9453 2.77757 48.5951 2.39796 47.892 2.38994H47.876C47.1782 2.38994 46.8307 2.76955 46.8307 3.53145V13.289C46.8307 14.0483 47.1836 14.4306 47.884 14.4306C48.5844 14.4306 48.948 14.0509 48.948 13.289V3.53145H48.9453Z" fill="white"/>
<path d="M60.2301 13.289C60.2301 15.6442 59.0672 16.8232 56.7414 16.8312C54.421 16.8312 53.2607 15.6523 53.2607 13.289V3.53145C53.2581 1.17626 54.421 0 56.7414 0C59.0618 0 60.2301 1.17626 60.2301 3.53145V13.289ZM57.8027 3.53145C57.8027 2.77757 57.4525 2.39796 56.7494 2.38994H56.7334C56.0356 2.38994 55.6881 2.76955 55.6881 3.53145V13.289C55.6881 14.0483 56.041 14.4306 56.7414 14.4306C57.4418 14.4306 57.8054 14.0509 57.8054 13.289V3.53145H57.8027Z" fill="white"/>
<path d="M66.6854 8.41562L69.8907 16.8259H67.2923L64.7125 9.34861V16.8259H62.2852V0.00537109H64.7125V7.49065L67.2923 0.00537109H69.8907L66.6854 8.41562Z" fill="white"/>
<path d="M64.7133 6.68896H39.25V10.1429H64.7133V6.68896Z" fill="#48A326"/>
<path d="M80.3033 13.2837C80.3033 15.6389 79.1404 16.8179 76.8146 16.8259C74.4942 16.8259 73.334 15.6469 73.334 13.2837V0.00537109H75.7614V13.2837C75.7614 14.0429 76.1116 14.4252 76.8146 14.4252C77.5177 14.4252 77.8786 14.0456 77.8786 13.2837V0.00537109H80.306V13.2837H80.3033Z" fill="white"/>
<path d="M82.448 0.00537109H85.9794C88.1341 0.0107177 89.2115 1.19232 89.2115 3.54751V6.07647C89.2115 7.81412 88.4362 8.93424 86.8884 9.43683C86.5168 9.55713 85.9768 9.61594 85.2683 9.61594H84.8727V16.8259H82.4453V0.00537109H82.448ZM84.8727 2.39531V7.21263H85.4287C85.7656 7.21263 85.9982 7.18857 86.1238 7.14312C86.5649 6.96668 86.7841 6.60846 86.7841 6.07112V3.54217C86.7841 2.7776 86.4339 2.39264 85.7308 2.39264H84.8727V2.39531Z" fill="white"/>
<path d="M84.8724 6.68896H75.7617V10.1429H84.8724V6.68896Z" fill="#48A326"/>
<path d="M108.905 0H92.6729V16.8232H108.905V0Z" fill="#196600"/>
<path d="M97.1725 6.20758L97.3917 7.87038H96.7074L96.5764 6.87591H95.8866L95.753 7.87038H95.0713L95.2905 6.21292L95.769 3.17871H96.6967L97.1725 6.2049V6.20758ZM96.4881 6.20758L96.2288 4.25606L95.9695 6.20758H96.4855H96.4881Z" fill="white"/>
<path d="M99.4738 3.18115V3.84681H98.8402V7.87015H98.1639V3.84681H97.5303V3.18115H99.4738Z" fill="white"/>
<path d="M97.8569 12.4898L98.3354 8.87549H99.0198L98.8006 10.5383L98.3247 13.5645H97.3971L97.0469 11.1425L96.6967 13.5645H95.769L95.2905 10.5329L95.0713 8.87549H95.753L96.2315 12.4898L96.71 8.87549H97.381L97.8596 12.4898H97.8569Z" fill="white"/>
<path d="M101.321 12.6555C101.321 13.3131 100.998 13.6419 100.348 13.6419C99.7014 13.6419 99.3779 13.3131 99.3779 12.6555V9.787C99.3779 9.12937 99.7014 8.80322 100.348 8.80322C100.995 8.80322 101.321 9.13204 101.321 9.787V12.6555ZM100.645 9.787C100.645 9.57581 100.546 9.47155 100.351 9.46888H100.346C100.151 9.46888 100.054 9.57581 100.054 9.787V12.6555C100.054 12.8667 100.153 12.9736 100.348 12.9736C100.543 12.9736 100.645 12.8667 100.645 12.6555V9.787Z" fill="white"/>
<path d="M101.894 8.87572H102.877C103.479 8.87572 103.778 9.20721 103.778 9.86217V10.5679C103.778 10.9796 103.602 11.2523 103.246 11.3833L104.005 13.5647H103.265L102.655 11.5009L102.57 11.5116V13.562H101.894V8.87305V8.87572ZM102.57 9.54405V10.8861H102.725C102.819 10.8861 102.883 10.8807 102.917 10.8673C103.04 10.8192 103.102 10.7176 103.102 10.5679V9.86217C103.102 9.64831 103.003 9.54138 102.808 9.54138H102.57V9.54405Z" fill="white"/>
<path d="M105.615 11.22L106.508 13.5645H105.783L105.064 11.4793V13.5645H104.388V8.87549H105.064V10.9633L105.783 8.87549H106.508L105.615 11.22Z" fill="white"/>
</g>
<defs>
<clipPath id="clip0_2683_335">
<rect width="108.906" height="16.8285" fill="white"/>
</clipPath>
</defs>
</svg>
