<svg width="109" height="17" viewBox="0 0 109 17" fill="none" xmlns="http://www.w3.org/2000/svg">
<g clip-path="url(#clip0_2683_399)">
<path d="M108.91 0H92.6768V16.8239H108.91V0Z" fill="#5B9100"/>
<path d="M96.4414 3.22412H98.1818V3.88446H97.1124V5.21582H98.0321V5.87883H97.1124V7.2102H98.1818V7.87053H96.4414V3.22412Z" fill="white"/>
<path d="M100.077 7.87614H99.1573L98.6841 4.87121L98.4648 3.22705H99.1439L99.6144 6.81211L100.088 3.22705H100.767L100.547 4.87655L100.077 7.87881V7.87614Z" fill="white"/>
<path d="M101.171 3.22412H102.911V3.88446H101.842V5.21582H102.762V5.87883H101.842V7.2102H102.911V7.87053H101.171V3.22412Z" fill="white"/>
<path d="M103.408 3.22412H104.079L104.716 5.92161V3.22412H105.336V7.87588H104.665L104.052 5.26394V7.87588H103.408V3.22412Z" fill="white"/>
<path d="M98.1785 8.87305V9.53338H97.5503V13.5221H96.8792V9.53338H96.251V8.87305H98.1785Z" fill="white"/>
<path d="M98.5586 9.77414C98.5586 9.12182 98.8794 8.79834 99.521 8.79834C100.163 8.79834 100.486 9.1245 100.486 9.77414V10.3997H99.8151V9.77414C99.8151 9.56561 99.7189 9.46135 99.5237 9.45868H99.5184C99.3259 9.45868 99.2296 9.56294 99.2296 9.77414V10.1965C99.2296 10.4024 99.4381 10.6564 99.8579 10.9585C100.278 11.2579 100.486 11.6161 100.486 12.0332V12.6213C100.486 13.2737 100.165 13.5998 99.5237 13.5998C98.8794 13.5998 98.5586 13.271 98.5586 12.6213V11.9958H99.2296V12.6213C99.2296 12.8325 99.3285 12.9368 99.5237 12.9368C99.7189 12.9368 99.8151 12.8325 99.8151 12.6213V12.0893C99.8151 11.8648 99.6066 11.6028 99.1869 11.3033C98.7671 11.0039 98.5586 10.6403 98.5586 10.2126V9.77681V9.77414Z" fill="white"/>
<path d="M0 0.00537109H3.73745C5.89223 0.0107179 6.96962 1.19237 6.96962 3.54766V13.295C6.96962 15.6449 5.84143 16.8212 3.58239 16.8266H0V0.00537109ZM2.42747 2.39541V14.4338H3.49149C4.1946 14.4338 4.54482 14.0542 4.54482 13.2923V3.54499C4.54482 2.78039 4.1946 2.39541 3.49149 2.39541H2.42747Z" fill="white"/>
<path d="M15.827 13.2787C15.827 15.634 14.6641 16.813 12.3382 16.821C10.0177 16.821 8.85742 15.642 8.85742 13.2787V3.53941C8.85742 1.18679 10.0177 0.0078125 12.3382 0.0078125C14.6588 0.0078125 15.827 1.18412 15.827 3.53941V13.276V13.2787ZM13.4022 3.53941C13.4022 2.7855 13.052 2.40588 12.3489 2.39786H12.3329C11.6351 2.39786 11.2876 2.77748 11.2876 3.53941V13.276C11.2876 14.0353 11.6405 14.4176 12.3409 14.4176C13.0413 14.4176 13.4049 14.0379 13.4049 13.276V3.53941H13.4022Z" fill="white"/>
<path d="M17.8848 0.00537109H20.3122L22.6087 9.76337V0.00537109H24.8544V16.8266H22.4269L20.216 7.37868V16.8266H17.8848V0.00537109Z" fill="white"/>
<path d="M33.3698 0.00537109V2.39809H31.0973V16.8266H28.6699V2.39541H26.3975V0.00537109H33.3671H33.3698Z" fill="white"/>
<path d="M31.095 6.68896H2.39844V10.143H31.095V6.68896Z" fill="#A9FF66"/>
<path d="M36.8262 16.8266V0.00537109H39.2536V14.4338H43.1194V16.8266H36.8262Z" fill="white"/>
<path d="M51.3749 13.2896C51.3749 15.6449 50.212 16.8239 47.8861 16.8319C45.5655 16.8319 44.4053 15.6529 44.4053 13.2896V3.53159C44.4053 1.17631 45.5655 0 47.8861 0C50.2066 0 51.3749 1.17631 51.3749 3.53159V13.2896ZM48.9474 3.53159C48.9474 2.77769 48.5972 2.39806 47.8941 2.39004H47.8781C47.1803 2.39004 46.8327 2.76967 46.8327 3.53159V13.2896C46.8327 14.0488 47.1856 14.4311 47.8861 14.4311C48.5865 14.4311 48.9501 14.0515 48.9501 13.2896V3.53159H48.9474Z" fill="white"/>
<path d="M60.2323 13.2896C60.2323 15.6449 59.0694 16.8239 56.7435 16.8319C54.423 16.8319 53.2627 15.6529 53.2627 13.2896V3.53159C53.26 1.17631 54.423 0 56.7435 0C59.064 0 60.2323 1.17631 60.2323 3.53159V13.2896ZM57.8049 3.53159C57.8049 2.77769 57.4546 2.39806 56.7515 2.39004H56.7355C56.0377 2.39004 55.6902 2.76967 55.6902 3.53159V13.2896C55.6902 14.0488 56.0431 14.4311 56.7435 14.4311C57.4439 14.4311 57.8075 14.0515 57.8075 13.2896V3.53159H57.8049Z" fill="white"/>
<path d="M66.6885 8.41597L69.894 16.8266H67.2954L64.7156 9.34899V16.8266H62.2881V0.00537109H64.7156V7.49096L67.2954 0.00537109H69.894L66.6885 8.41597Z" fill="white"/>
<path d="M64.7154 6.68896H39.251V10.143H64.7154V6.68896Z" fill="#A9FF66"/>
<path d="M80.3075 13.2843C80.3075 15.6396 79.1446 16.8185 76.8187 16.8266C74.4982 16.8266 73.3379 15.6476 73.3379 13.2843V0.00537109H75.7654V13.2843C75.7654 14.0435 76.1156 14.4258 76.8187 14.4258C77.5218 14.4258 77.8827 14.0462 77.8827 13.2843V0.00537109H80.3102V13.2843H80.3075Z" fill="white"/>
<path d="M82.4509 0.00537109H85.9825C88.1373 0.0107179 89.2147 1.19237 89.2147 3.54766V6.07672C89.2147 7.81445 88.4394 8.93461 86.8915 9.43722C86.5199 9.55752 85.9798 9.61634 85.2714 9.61634H84.8757V16.8266H82.4482V0.00537109H82.4509ZM84.8757 2.39541V7.21293H85.4318C85.7686 7.21293 86.0012 7.18886 86.1269 7.14342C86.568 6.96697 86.7872 6.60873 86.7872 6.07137V3.54231C86.7872 2.77771 86.437 2.39274 85.7339 2.39274H84.8757V2.39541Z" fill="white"/>
<path d="M84.8757 6.68896H75.7646V10.143H84.8757V6.68896Z" fill="#A9FF66"/>
</g>
<defs>
<clipPath id="clip0_2683_399">
<rect width="108.91" height="16.8292" fill="white"/>
</clipPath>
</defs>
</svg>
