<svg width="109" height="17" viewBox="0 0 109 17" fill="none" xmlns="http://www.w3.org/2000/svg">
<g clip-path="url(#clip0_2683_356)">
<path d="M108.905 0H92.6729V16.8232H108.905V0Z" fill="#009B42"/>
<path d="M96.0117 8.84604H96.6854V9.47427C96.6854 9.68546 96.7843 9.78972 96.9795 9.78972C97.1746 9.78972 97.2708 9.68546 97.2708 9.47427V5.71826H97.9445V9.47427C97.9445 10.1292 97.6237 10.4554 96.9795 10.4554C96.3352 10.4554 96.0117 10.1266 96.0117 9.47427V8.84604Z" fill="white"/>
<path d="M100.445 9.47149C100.445 10.1238 100.121 10.4499 99.4768 10.4526C98.8325 10.4526 98.5117 10.1264 98.5117 9.47149V6.61906C98.5117 5.96677 98.8325 5.64062 99.4768 5.64062C100.121 5.64062 100.445 5.96677 100.445 6.61906V9.47149ZM99.7735 6.62173C99.7735 6.41321 99.6773 6.30628 99.4821 6.30628H99.4768C99.2843 6.30628 99.1881 6.41054 99.1881 6.62173V9.47416C99.1881 9.68535 99.2843 9.78961 99.4795 9.78961C99.6746 9.78961 99.7735 9.68535 99.7735 9.47416V6.62173Z" fill="white"/>
<path d="M101.017 5.71582H102.054C102.65 5.71582 102.949 6.04464 102.949 6.69693V7.39734C102.949 7.70209 102.826 7.91863 102.58 8.04695C102.826 8.1726 102.949 8.38914 102.949 8.69657V9.39965C102.949 10.0519 102.637 10.3781 102.011 10.3781H101.017V5.71582ZM101.688 6.3788V7.71546H101.899C101.992 7.71546 102.057 7.71011 102.091 7.69675C102.214 7.64863 102.273 7.54971 102.273 7.40001V6.6996C102.273 6.48841 102.177 6.38148 101.982 6.38148H101.688V6.3788ZM101.688 8.37844V9.7151H101.982C102.177 9.7151 102.273 9.61084 102.273 9.39965V8.69657C102.273 8.54686 102.212 8.45062 102.091 8.4025C102.057 8.38914 101.992 8.38112 101.899 8.38112H101.688V8.37844Z" fill="white"/>
<path d="M103.446 6.62199C103.446 5.9697 103.767 5.64355 104.411 5.64355C105.056 5.64355 105.379 5.9697 105.379 6.62199V7.25022H104.705V6.62199C104.705 6.41347 104.609 6.30654 104.414 6.30654H104.409C104.216 6.30654 104.12 6.4108 104.12 6.62199V7.04437C104.12 7.25289 104.331 7.50686 104.751 7.80627C105.171 8.10568 105.382 8.4639 105.382 8.88361V9.47174C105.382 10.1267 105.061 10.4528 104.417 10.4528C103.772 10.4528 103.449 10.124 103.449 9.47174V8.84351H104.123V9.47174C104.123 9.68293 104.222 9.78719 104.417 9.78719C104.612 9.78719 104.708 9.68293 104.708 9.47174V8.93975C104.708 8.71519 104.5 8.45054 104.077 8.15112C103.657 7.85171 103.446 7.48814 103.446 7.05774V6.61931V6.62199Z" fill="white"/>
<path d="M0 0.00585938H3.73729C5.89199 0.011206 6.96933 1.19281 6.96933 3.548V13.2949C6.96933 15.6448 5.84119 16.821 3.58224 16.8264H0V0.00585938ZM2.42737 2.3958V14.4337H3.49135C4.19443 14.4337 4.54464 14.0541 4.54464 13.2922V3.54533C4.54464 2.78076 4.19443 2.3958 3.49135 2.3958H2.42737Z" fill="white"/>
<path d="M15.8258 13.2786C15.8258 15.6338 14.6629 16.8128 12.3371 16.8208C10.0167 16.8208 8.85645 15.6418 8.85645 13.2786V3.53975C8.85645 1.18723 10.0167 0.00830078 12.3371 0.00830078C14.6575 0.00830078 15.8258 1.18456 15.8258 3.53975V13.276V13.2786ZM13.4011 3.53975C13.4011 2.78587 13.0509 2.40626 12.3478 2.39824H12.3318C11.634 2.39824 11.2865 2.77785 11.2865 3.53975V13.276C11.2865 14.0352 11.6394 14.4175 12.3398 14.4175C13.0402 14.4175 13.4038 14.0379 13.4038 13.276V3.53975H13.4011Z" fill="white"/>
<path d="M17.8848 0.00537109H20.3121L22.6085 9.76297V0.00537109H24.8541V16.8259H22.4267L20.2159 7.37837V16.8259H17.8848V0.00537109Z" fill="white"/>
<path d="M33.3685 0.00537109V2.39799H31.0962V16.8259H28.6688V2.39531H26.3965V0.00537109H33.3658H33.3685Z" fill="white"/>
<path d="M31.0938 6.68896H2.39844V10.1429H31.0938V6.68896Z" fill="#15D16A"/>
<path d="M36.8252 16.8259V0.00537109H39.2526V14.4333H43.1182V16.8259H36.8252Z" fill="white"/>
<path d="M51.3726 13.289C51.3726 15.6442 50.2098 16.8232 47.884 16.8312C45.5635 16.8312 44.4033 15.6523 44.4033 13.289V3.53145C44.4033 1.17626 45.5635 0 47.884 0C50.2044 0 51.3726 1.17626 51.3726 3.53145V13.289ZM48.9453 3.53145C48.9453 2.77757 48.5951 2.39796 47.892 2.38994H47.876C47.1782 2.38994 46.8307 2.76955 46.8307 3.53145V13.289C46.8307 14.0483 47.1836 14.4306 47.884 14.4306C48.5844 14.4306 48.948 14.0509 48.948 13.289V3.53145H48.9453Z" fill="white"/>
<path d="M60.2301 13.289C60.2301 15.6442 59.0672 16.8232 56.7414 16.8312C54.421 16.8312 53.2607 15.6523 53.2607 13.289V3.53145C53.2581 1.17626 54.421 0 56.7414 0C59.0618 0 60.2301 1.17626 60.2301 3.53145V13.289ZM57.8027 3.53145C57.8027 2.77757 57.4525 2.39796 56.7494 2.38994H56.7334C56.0356 2.38994 55.6881 2.76955 55.6881 3.53145V13.289C55.6881 14.0483 56.041 14.4306 56.7414 14.4306C57.4418 14.4306 57.8054 14.0509 57.8054 13.289V3.53145H57.8027Z" fill="white"/>
<path d="M66.6854 8.41562L69.8907 16.8259H67.2923L64.7125 9.34861V16.8259H62.2852V0.00537109H64.7125V7.49065L67.2923 0.00537109H69.8907L66.6854 8.41562Z" fill="white"/>
<path d="M64.7133 6.68896H39.25V10.1429H64.7133V6.68896Z" fill="#15D16A"/>
<path d="M80.3033 13.2837C80.3033 15.6389 79.1404 16.8179 76.8146 16.8259C74.4942 16.8259 73.334 15.6469 73.334 13.2837V0.00537109H75.7614V13.2837C75.7614 14.0429 76.1116 14.4252 76.8146 14.4252C77.5177 14.4252 77.8786 14.0456 77.8786 13.2837V0.00537109H80.306V13.2837H80.3033Z" fill="white"/>
<path d="M82.448 0.00537109H85.9794C88.1341 0.0107177 89.2115 1.19232 89.2115 3.54751V6.07647C89.2115 7.81412 88.4362 8.93424 86.8884 9.43683C86.5168 9.55713 85.9768 9.61594 85.2683 9.61594H84.8727V16.8259H82.4453V0.00537109H82.448ZM84.8727 2.39531V7.21263H85.4287C85.7656 7.21263 85.9982 7.18857 86.1238 7.14312C86.5649 6.96668 86.7841 6.60846 86.7841 6.07112V3.54217C86.7841 2.7776 86.4339 2.39264 85.7308 2.39264H84.8727V2.39531Z" fill="white"/>
<path d="M84.8724 6.68896H75.7617V10.1429H84.8724V6.68896Z" fill="#15D16A"/>
</g>
<defs>
<clipPath id="clip0_2683_356">
<rect width="108.906" height="16.8285" fill="white"/>
</clipPath>
</defs>
</svg>
