<svg width="109" height="17" viewBox="0 0 109 17" fill="none" xmlns="http://www.w3.org/2000/svg">
<g clip-path="url(#clip0_2683_377)">
<path d="M0 0.00537109H3.73809C5.89324 0.0107189 6.97082 1.19258 6.97082 3.54827V13.2973C6.97082 15.6476 5.84244 16.8241 3.58301 16.8295H0V0.00537109ZM2.42789 2.39582V14.4363H3.49209C4.19533 14.4363 4.5456 14.0566 4.5456 13.2946V3.54559C4.5456 2.78086 4.19533 2.39582 3.49209 2.39582H2.42789Z" fill="white"/>
<path d="M15.8292 13.281C15.8292 15.6367 14.6661 16.8159 12.3398 16.8239C10.0189 16.8239 8.8584 15.6447 8.8584 13.281V3.54001C8.8584 1.187 10.0189 0.0078125 12.3398 0.0078125C14.6607 0.0078125 15.8292 1.18432 15.8292 3.54001V13.2783V13.281ZM13.404 3.54001C13.404 2.78598 13.0537 2.40629 12.3505 2.39827H12.3344C11.6366 2.39827 11.289 2.77796 11.289 3.54001V13.2783C11.289 14.0377 11.6419 14.4201 12.3425 14.4201C13.043 14.4201 13.4067 14.0404 13.4067 13.2783V3.54001H13.404Z" fill="white"/>
<path d="M17.8887 0.00537109H20.3166L22.6134 9.76505V0.00537109H24.8595V16.8295H22.4316L20.2203 7.37995V16.8295H17.8887V0.00537109Z" fill="white"/>
<path d="M33.3758 0.00537109V2.3985H31.103V16.8295H28.6751V2.39582H26.4023V0.00537109H33.3732H33.3758Z" fill="white"/>
<path d="M31.0999 6.68994H2.39844V10.1446H31.0999V6.68994Z" fill="#85D3D3"/>
<path d="M36.833 16.8295V0.00537109H39.2609V14.4363H43.1273V16.8295H36.833Z" fill="white"/>
<path d="M51.3839 13.2919C51.3839 15.6476 50.2208 16.8268 47.8945 16.8348C45.5735 16.8348 44.4131 15.6556 44.4131 13.2919V3.5322C44.4131 1.17651 45.5735 0 47.8945 0C50.2154 0 51.3839 1.17651 51.3839 3.5322V13.2919ZM48.956 3.5322C48.956 2.77817 48.6057 2.39847 47.9025 2.39045H47.8865C47.1886 2.39045 46.841 2.77014 46.841 3.5322V13.2919C46.841 14.0513 47.1939 14.4336 47.8945 14.4336C48.595 14.4336 48.9587 14.0539 48.9587 13.2919V3.5322H48.956Z" fill="white"/>
<path d="M60.2423 13.2919C60.2423 15.6476 59.0792 16.8268 56.7529 16.8348C54.432 16.8348 53.2715 15.6556 53.2715 13.2919V3.5322C53.2688 1.17651 54.432 0 56.7529 0C59.0738 0 60.2423 1.17651 60.2423 3.5322V13.2919ZM57.8144 3.5322C57.8144 2.77817 57.4641 2.39847 56.7609 2.39045H56.7449C56.047 2.39045 55.6994 2.77014 55.6994 3.5322V13.2919C55.6994 14.0513 56.0523 14.4336 56.7529 14.4336C57.4534 14.4336 57.8171 14.0539 57.8171 13.2919V3.5322H57.8144Z" fill="white"/>
<path d="M66.7 8.41741L69.906 16.8295H67.307L64.7267 9.3506V16.8295H62.2988V0.00537109H64.7267V7.49225L67.307 0.00537109H69.906L66.7 8.41741Z" fill="white"/>
<path d="M64.7266 6.68994H39.2578V10.1446H64.7266V6.68994Z" fill="#85D3D3"/>
<path d="M80.3204 13.2866C80.3204 15.6423 79.1573 16.8214 76.831 16.8295C74.5101 16.8295 73.3496 15.6503 73.3496 13.2866V0.00537109H75.7775V13.2866C75.7775 14.0459 76.1278 14.4283 76.831 14.4283C77.5342 14.4283 77.8952 14.0486 77.8952 13.2866V0.00537109H80.3231V13.2866H80.3204Z" fill="white"/>
<path d="M82.4656 0.00537109H85.9978C88.1529 0.0107189 89.2305 1.19258 89.2305 3.54827V6.07776C89.2305 7.81579 88.4551 8.93615 86.9069 9.43884C86.5352 9.55916 85.9951 9.61799 85.2865 9.61799H84.8908V16.8295H82.4629V0.00537109H82.4656ZM84.8908 2.39582V7.21416H85.4469C85.7839 7.21416 86.0165 7.1901 86.1422 7.14464C86.5833 6.96817 86.8026 6.60987 86.8026 6.07242V3.54292C86.8026 2.77819 86.4523 2.39315 85.7491 2.39315H84.8908V2.39582Z" fill="white"/>
<path d="M84.8909 6.68994H75.7783V10.1446H84.8909V6.68994Z" fill="#85D3D3"/>
<path d="M108.91 0H92.6738V16.8268H108.91V0Z" fill="#06B5B9"/>
<path d="M96.4548 3.24609H98.1982V3.90922H97.126V5.24616H98.0485V5.91196H97.126V7.91202H96.4521V3.24609H96.4548Z" fill="white"/>
<path d="M100.399 6.25421L100.618 7.90935H99.9389L99.8079 6.92001H99.1207L98.987 7.90935H98.3105L98.5298 6.26224L99.0058 3.24609H99.9282L100.402 6.25421H100.399ZM99.7197 6.25421L99.463 4.31565L99.2063 6.25421H99.7197Z" fill="white"/>
<path d="M100.974 4.15247C100.974 3.50004 101.294 3.17383 101.939 3.17383C102.583 3.17383 102.907 3.50004 102.907 4.15247V4.78083H102.233V4.15247C102.233 3.94391 102.137 3.83695 101.942 3.83695H101.936C101.744 3.83695 101.647 3.94123 101.647 4.15247V4.57494C101.647 4.78351 101.859 5.03753 102.278 5.337C102.698 5.63648 102.91 5.99478 102.91 6.41458V7.00283C102.91 7.65793 102.589 7.98415 101.944 7.98415C101.3 7.98415 100.976 7.65526 100.976 7.00283V6.37447H101.65V7.00283C101.65 7.21407 101.749 7.31835 101.944 7.31835C102.139 7.31835 102.236 7.21407 102.236 7.00283V6.47073C102.236 6.24612 102.027 5.98141 101.605 5.68193C101.185 5.38246 100.974 5.01881 100.974 4.58831V4.1498V4.15247Z" fill="white"/>
<path d="M103.477 3.24609H104.15V5.24616H104.739V3.24609H105.412V7.90935H104.739V5.90928H104.15V7.90935H103.477V3.24609Z" fill="white"/>
<path d="M96.4658 8.74365H97.1396V13.4069H96.4658V8.74365Z" fill="white"/>
<path d="M99.6559 12.5031C99.6559 13.1555 99.3323 13.4844 98.6879 13.4844C98.0435 13.4844 97.7227 13.1582 97.7227 12.5031V9.65003C97.7227 8.9976 98.0435 8.67139 98.6879 8.67139C99.3323 8.67139 99.6559 8.9976 99.6559 9.65003V12.5031ZM98.9821 9.65003C98.9821 9.44147 98.8858 9.33451 98.6906 9.33451H98.6853C98.4927 9.33451 98.3965 9.43879 98.3965 9.65003V12.5031C98.3965 12.7143 98.4927 12.8186 98.6879 12.8186C98.8831 12.8186 98.9821 12.7143 98.9821 12.5031V9.65003Z" fill="white"/>
<path d="M100.226 8.74365H100.899L101.536 11.4496V8.74365H102.159V13.4069H101.485L100.873 10.7865V13.4069H100.226V8.74365Z" fill="white"/>
</g>
<defs>
<clipPath id="clip0_2683_377">
<rect width="108.91" height="16.8321" fill="white"/>
</clipPath>
</defs>
</svg>
