<svg width="63" height="24" viewBox="0 0 63 24" fill="none" xmlns="http://www.w3.org/2000/svg">
<g clip-path="url(#clip0_2115_3230)">
<path d="M0 0H5.43249C8.56393 0.00873124 10.1291 1.69277 10.1291 5.05211V18.9599C10.1291 22.3116 8.48834 23.9913 5.20794 24H0V0ZM3.52606 3.41282V20.5872H5.07121C6.09279 20.5872 6.60414 20.0447 6.60414 18.9599V5.05211C6.60414 3.95962 6.09279 3.41282 5.07121 3.41282H3.52606Z" fill="white"/>
<path d="M13.1191 24V0H16.6452V20.5872H22.2644V24H13.1191Z" fill="white"/>
<path d="M34.3869 18.8988C34.3869 22.2592 32.6961 23.9422 29.3157 23.9509C25.943 23.9509 24.2578 22.2668 24.2578 18.8988V0H27.7839V18.8988C27.7839 19.9836 28.2952 20.5261 29.3168 20.5261C30.3384 20.5261 30.862 19.9836 30.862 18.8988V0H34.388V18.8988H34.3869Z" fill="white"/>
<path d="M34.3846 9.53564H3.5293V14.4644H34.3846V9.53564Z" fill="#FD0100"/>
<path d="M62.1596 0.958496H40.3418V22.7004H62.1596V0.958496Z" fill="white"/>
<path d="M46.3679 13.4482L46.1367 15.1617H46.598L46.3679 13.4482Z" fill="#FD0100"/>
<path d="M48.6944 18.207H48.6899C48.5154 18.207 48.4287 18.2998 48.4287 18.4864V21.0065C48.4287 21.1931 48.5165 21.2859 48.6922 21.2859C48.8678 21.2859 48.9578 21.1931 48.9578 21.0065V18.4864C48.9578 18.302 48.87 18.2081 48.6944 18.207Z" fill="#FD0100"/>
<path d="M44.1089 13.089H43.8955V14.2688H44.0345C44.1189 14.2688 44.1767 14.2633 44.2079 14.2524C44.3179 14.2088 44.3724 14.1215 44.3724 13.9894V13.3695C44.3724 13.1818 44.2846 13.0879 44.1089 13.0879V13.089Z" fill="#FD0100"/>
<path d="M46.3054 5.73755C46.4822 5.73755 46.5711 5.64478 46.5711 5.45815V2.93809C46.5711 2.75364 46.4833 2.65978 46.3077 2.65869H46.3032C46.1287 2.65869 46.042 2.75146 46.042 2.93809V5.45815C46.042 5.64478 46.1298 5.73755 46.3054 5.73755Z" fill="#FD0100"/>
<path d="M53.2422 18.2711H52.9766V21.219H53.2422C53.4179 21.219 53.5057 21.1262 53.5057 20.9396V18.5516C53.5057 18.3639 53.4179 18.27 53.2422 18.27V18.2711Z" fill="#FD0100"/>
<path d="M44.0955 5.73755C44.2722 5.73755 44.3612 5.64478 44.3612 5.45815V2.93809C44.3612 2.75364 44.2733 2.65978 44.0977 2.65869H44.0933C43.9187 2.65869 43.832 2.75146 43.832 2.93809V5.45815C43.832 5.64478 43.9198 5.73755 44.0955 5.73755Z" fill="#FD0100"/>
<path d="M42.3059 20.0591C42.2748 20.046 42.217 20.0405 42.1325 20.0405H41.9424V21.2203H42.2081C42.3837 21.2203 42.4715 21.1276 42.4715 20.9409V20.3199C42.4715 20.1879 42.417 20.1016 42.307 20.0591H42.3059Z" fill="#FD0100"/>
<path d="M42.2071 18.2711H41.9414V19.4509H42.1315C42.216 19.4509 42.2738 19.4455 42.3049 19.4346C42.415 19.3909 42.4694 19.3036 42.4694 19.1715V18.5516C42.4694 18.3639 42.3816 18.27 42.206 18.27L42.2071 18.2711Z" fill="#FD0100"/>
<path d="M55.0782 13.0249H55.0737C54.8992 13.0249 54.8125 13.1177 54.8125 13.3043V15.8244C54.8125 16.011 54.9003 16.1038 55.076 16.1038C55.2516 16.1038 55.3416 16.011 55.3416 15.8244V13.3043C55.3416 13.1199 55.2538 13.026 55.0782 13.0249Z" fill="#FD0100"/>
<path d="M39.4648 0V23.9465H63.0001V0H39.4648ZM53.9281 10.7591H54.6785V11.3615L54.4473 12.1277H54.056L54.1805 11.4412H53.9281V10.7591ZM50.4832 7.32115H51.088V11.4412H50.4832V7.32115ZM47.6897 2.13915H48.2945V3.97272L48.9381 2.13915H49.5862L48.7858 4.19864L49.5862 6.25812H48.9381L48.2945 4.42674V6.25812H47.6897V2.13915ZM46.0534 7.90723V7.32115H47.792V7.90723H47.2251V11.4412H46.6192V7.90723H46.0523H46.0534ZM45.4376 2.93915C45.4376 2.36289 45.7266 2.07367 46.3058 2.07367C46.8849 2.07367 47.1762 2.3618 47.1762 2.93915V5.45921C47.1762 6.03547 46.886 6.32469 46.3058 6.32688C45.7266 6.32688 45.4376 6.03765 45.4376 5.45921V2.93915ZM45.0519 7.32115H45.6566V11.4412H45.0519V7.32115ZM43.2277 2.93915C43.2277 2.36289 43.5167 2.07367 44.0959 2.07367C44.675 2.07367 44.9663 2.3618 44.9663 2.93915V5.45921C44.9663 6.03547 44.6761 6.32469 44.0959 6.32688C43.5167 6.32688 43.2277 6.03765 43.2277 5.45921V2.93915ZM41.3368 2.13915H41.9415V5.67312H42.9064V6.25921H41.3368V2.13915ZM41.1656 13.0892V12.5031H42.9042V13.0892H42.3373V16.6232H41.7314V13.0892H41.1645H41.1656ZM43.0754 19.1727C43.0754 19.4434 42.9653 19.6344 42.7441 19.7457C42.9653 19.8581 43.0754 20.0491 43.0754 20.3187V20.9397C43.0754 21.5149 42.7941 21.803 42.2306 21.8052H41.3368V17.6851H42.2695C42.8075 17.6862 43.0754 17.9754 43.0754 18.5528V19.1727ZM42.9109 9.31405L42.5985 11.4412H41.7681L41.3402 8.77817L41.1434 7.32115H41.7526L42.1805 10.496L42.6085 7.32115H43.2099L43.6379 10.496L44.0658 7.32115H44.6772L44.4805 8.78254L44.0547 11.4412H43.2243L42.9098 9.31405H42.9109ZM45.1374 18.2712H44.1726V19.451H45.0029V20.0393H44.1726V21.2191H45.1374V21.8052H43.5678V17.6851H45.1374V18.2712ZM44.5172 16.6232L43.9714 14.8115L43.8947 14.8224V16.6243H43.2899V12.5042H44.1714C44.7095 12.5053 44.9774 12.7945 44.9774 13.3719V13.9918C44.9774 14.3542 44.8184 14.5932 44.5005 14.7078L45.1808 16.6254H44.5183L44.5172 16.6232ZM45.5265 15.1683L45.9545 12.5031H46.7849L47.2106 15.1618L47.4074 16.6232H46.796L46.6782 15.7501H46.0601L45.94 16.6232H45.3309L45.5276 15.1683H45.5265ZM46.7693 20.0229L46.7526 20.0731V21.8052H46.1468V20.0731L46.1279 20.0229L45.3942 17.6862H46.0356L46.448 19.2928L46.8605 17.6862H47.5019L46.7682 20.0229H46.7693ZM47.7709 12.5031H48.3756L48.9492 14.8933V12.5031H49.5095V16.6232H48.9047L48.3534 14.3094V16.6232H47.772V12.5031H47.7709ZM49.5628 21.0063C49.5628 21.5825 49.2727 21.8718 48.6924 21.8739C48.1133 21.8739 47.8242 21.5847 47.8242 21.0063V18.4862C47.8242 17.91 48.1133 17.6207 48.6924 17.6207C49.2716 17.6207 49.5628 17.9089 49.5628 18.4862V21.0063ZM49.9163 11.4412H49.3105V9.67531H48.7825V11.4412H48.1777V7.32115H48.7825V9.08704H49.3105V7.32115H49.9163V11.4412ZM50.023 15.2688H50.6277V15.8232C50.6277 16.0098 50.7167 16.1026 50.8934 16.1026C51.0702 16.1026 51.1569 16.0098 51.1569 15.8232V15.3528C51.1569 15.1542 50.9679 14.9217 50.5899 14.6554C50.212 14.3913 50.023 14.0693 50.023 13.6895V13.3031C50.023 12.7269 50.312 12.4377 50.8912 12.4377C51.4703 12.4377 51.7616 12.7258 51.7616 13.3031V13.8576H51.1558V13.3031C51.1558 13.1187 51.0679 13.0248 50.8923 13.0237H50.8879C50.7133 13.0237 50.6266 13.1165 50.6266 13.3031V13.6764C50.6266 13.8598 50.8156 14.0846 51.1936 14.3509C51.5715 14.615 51.7605 14.9326 51.7605 15.3026V15.8232C51.7605 16.4016 51.4715 16.6909 50.8923 16.6909C50.312 16.6898 50.0219 16.4005 50.0219 15.8232V15.2688H50.023ZM51.815 21.8063H51.2091L50.6578 19.4925V21.8063H50.0764V17.6862H50.6811L51.2547 20.0764V17.6862H51.815V21.8063ZM52.2363 11.4412H51.6549V7.32115H52.2596L52.8332 9.71132V7.32115H53.3935V11.4412H52.7876L52.2363 9.12742V11.4412ZM52.2752 12.5031H53.8448V13.0892H52.8799V14.269H53.7103V14.8573H52.8799V16.6232H52.2752V12.5031ZM54.1104 20.9408C54.1104 21.516 53.8292 21.8041 53.2656 21.8063H52.3719V17.6862H53.3045C53.8425 17.6873 54.1104 17.9765 54.1104 18.5539V20.9419V20.9408ZM55.948 15.8232C55.948 16.3995 55.6578 16.6887 55.0776 16.6909C54.4984 16.6909 54.2094 16.4016 54.2094 15.8232V13.3031C54.2094 12.7269 54.4984 12.4377 55.0776 12.4377C55.6567 12.4377 55.948 12.7258 55.948 13.3031V15.8232ZM57.6888 16.6232L57.143 14.8115L57.0662 14.8224V16.6243H56.4615V12.5042H57.343C57.8811 12.5053 58.149 12.7945 58.149 13.3719V13.9918C58.149 14.3542 57.99 14.5932 57.6721 14.7078L58.3524 16.6254H57.6899L57.6888 16.6232ZM61.3204 16.6232H60.7413V14.3116L60.2233 16.6232H59.8131L59.2806 14.3116V16.6232H58.6948V12.5031H59.2995L60.012 15.3255L60.7157 12.5031H61.3215V16.6232H61.3204Z" fill="#FD0100"/>
<path d="M57.2798 13.089H57.0664V14.2688H57.2054C57.2898 14.2688 57.3476 14.2633 57.3788 14.2524C57.4888 14.2088 57.5433 14.1215 57.5433 13.9894V13.3695C57.5433 13.1818 57.4555 13.0879 57.2798 13.0879V13.089Z" fill="#FD0100"/>
</g>
<defs>
<clipPath id="clip0_2115_3230">
<rect width="63" height="24" fill="white"/>
</clipPath>
</defs>
</svg>
